<svg id="svg" version="1.1" width="400" height="400" viewBox="0 0 400 400" xmlns="http://www.w3.org/2000/svg" xmlns:xlink="http://www.w3.org/1999/xlink" ><g id="svgg"><path id="path0" d="M129.600 125.627 C 129.050 126.072,128.207 126.599,127.728 126.798 C 126.378 127.357,126.354 128.067,126.482 164.874 L 126.600 199.148 127.760 200.358 C 130.402 203.116,134.496 202.375,136.175 198.835 L 137.235 196.600 137.118 163.000 C 136.985 125.085,137.251 128.116,133.853 125.810 C 132.063 124.595,130.935 124.547,129.600 125.627 M267.099 126.062 C 264.460 127.737,264.600 125.619,264.600 164.000 L 264.600 198.600 265.714 200.057 C 267.862 202.864,272.129 202.547,274.100 199.434 L 275.200 197.696 275.200 163.431 C 275.200 136.617,275.091 129.031,274.700 128.545 C 274.425 128.203,273.775 127.511,273.255 127.007 C 270.519 124.356,269.930 124.265,267.099 126.062 M94.350 149.500 C 94.005 149.885,93.380 150.399,92.961 150.643 C 92.061 151.168,91.521 183.581,92.366 186.400 C 93.365 189.735,97.936 190.649,100.549 188.036 L 101.800 186.784 101.800 168.936 C 101.800 151.814,101.769 151.069,101.039 150.644 C 100.620 150.400,99.995 149.885,99.650 149.500 C 99.209 149.008,98.420 148.800,97.000 148.800 C 95.580 148.800,94.791 149.008,94.350 149.500 M162.447 150.447 L 160.800 152.094 160.800 169.250 L 160.800 186.405 161.800 187.275 C 162.350 187.753,162.800 188.366,162.800 188.637 C 162.800 188.908,163.520 189.251,164.400 189.400 C 166.219 189.707,169.200 189.313,169.200 188.765 C 169.200 188.564,169.594 188.006,170.075 187.525 C 170.563 187.037,171.083 185.844,171.251 184.825 C 171.656 182.375,171.650 155.437,171.244 153.344 C 170.367 148.815,165.637 147.257,162.447 150.447 M231.880 150.024 C 231.264 150.640,230.589 151.741,230.380 152.470 C 229.881 154.210,229.884 184.200,230.383 185.941 C 231.600 190.183,237.641 190.816,239.627 186.910 C 240.391 185.408,240.699 157.031,239.991 153.400 C 239.135 149.008,234.728 147.173,231.880 150.024 M301.136 149.900 C 298.672 152.574,298.800 151.520,298.800 169.161 L 298.800 185.344 300.100 187.248 C 302.092 190.165,305.480 190.427,308.101 187.868 L 309.400 186.600 309.400 169.129 L 309.400 151.658 307.800 150.246 C 305.637 148.336,302.717 148.185,301.136 149.900 M59.700 166.662 C 59.205 166.768,58.800 167.100,58.800 167.399 C 58.800 167.698,58.558 168.184,58.263 168.480 C 56.961 169.782,56.800 170.827,56.800 177.973 L 56.800 185.198 58.228 187.186 C 60.357 190.150,63.626 190.436,66.180 187.882 L 67.400 186.662 67.400 177.831 L 67.400 169.000 66.284 167.824 C 65.150 166.630,62.237 166.116,59.700 166.662 M197.700 166.682 C 197.205 166.778,196.800 167.056,196.800 167.302 C 196.800 167.547,196.395 168.569,195.900 169.574 C 194.512 172.390,194.546 183.293,195.952 186.296 C 197.563 189.737,201.083 190.636,203.952 188.340 C 205.565 187.048,205.588 186.889,205.595 177.341 L 205.600 168.883 204.186 167.641 C 202.764 166.393,200.749 166.095,197.700 166.682 M335.956 166.846 C 332.440 168.137,332.542 186.338,336.080 188.857 C 337.776 190.064,340.603 189.700,342.422 188.039 L 343.748 186.828 343.924 180.048 C 344.255 167.329,342.512 164.441,335.956 166.846 M103.600 225.822 C 101.730 226.336,99.727 226.767,99.149 226.778 C 98.571 226.790,97.890 227.051,97.636 227.357 C 97.381 227.663,96.594 228.150,95.887 228.439 C 94.254 229.106,90.800 231.556,90.800 232.047 C 90.800 232.252,90.350 232.591,89.800 232.800 C 89.250 233.009,88.797 233.410,88.794 233.690 C 88.790 233.971,88.250 234.809,87.594 235.554 C 86.937 236.299,86.400 237.216,86.400 237.592 C 86.400 237.968,86.059 238.585,85.642 238.962 C 85.225 239.340,84.763 240.455,84.615 241.440 C 84.467 242.425,83.985 244.333,83.543 245.679 C 82.423 249.091,83.411 257.871,85.244 260.800 C 85.451 261.130,85.969 262.131,86.395 263.025 C 86.822 263.919,87.537 264.981,87.985 265.387 C 88.433 265.792,88.800 266.337,88.800 266.598 C 88.800 266.858,89.250 267.277,89.800 267.527 C 90.350 267.778,90.800 268.257,90.800 268.591 C 90.800 268.926,91.042 269.200,91.339 269.200 C 91.635 269.200,92.310 269.583,92.839 270.051 C 93.367 270.519,94.430 271.169,95.200 271.496 C 95.970 271.823,96.712 272.268,96.849 272.486 C 98.630 275.319,117.404 275.771,119.294 273.027 C 119.653 272.505,119.695 265.777,119.350 264.050 C 119.108 262.839,116.800 262.055,116.800 263.184 C 116.800 264.588,105.617 264.867,104.109 263.500 C 103.685 263.115,103.066 262.800,102.734 262.800 C 101.573 262.800,98.373 259.861,96.908 257.448 C 92.838 250.749,96.178 239.395,102.800 237.416 C 103.350 237.251,104.250 236.825,104.800 236.469 C 106.234 235.541,113.638 235.538,115.600 236.465 C 119.262 238.196,119.600 237.888,119.600 232.817 C 119.600 226.699,119.830 227.024,114.656 225.825 C 109.350 224.596,108.062 224.595,103.600 225.822 M180.390 225.932 C 178.294 226.520,176.016 227.405,175.328 227.900 C 174.640 228.395,173.810 228.800,173.485 228.800 C 173.160 228.800,172.796 229.173,172.676 229.630 C 172.557 230.086,172.086 230.557,171.630 230.676 C 171.173 230.796,170.800 231.136,170.800 231.433 C 170.800 232.210,169.512 234.800,169.126 234.800 C 168.336 234.800,168.766 244.238,169.600 245.200 C 170.040 245.707,170.400 246.348,170.400 246.624 C 170.400 248.155,177.736 252.936,181.386 253.783 C 182.503 254.042,185.497 255.242,186.782 255.946 C 188.713 257.003,190.436 260.707,189.453 261.690 C 189.152 261.991,188.788 262.609,188.644 263.063 C 187.823 265.649,177.362 267.249,173.051 265.447 C 172.199 265.091,170.894 264.800,170.151 264.800 L 168.800 264.800 168.800 269.192 C 168.800 273.421,168.833 273.592,169.700 273.785 C 170.195 273.896,171.826 274.259,173.325 274.593 C 176.809 275.369,184.187 275.393,186.486 274.635 C 187.429 274.324,189.233 273.846,190.494 273.573 C 191.756 273.299,193.089 272.743,193.456 272.338 C 193.824 271.932,194.327 271.600,194.576 271.600 C 196.935 271.600,201.200 263.993,201.200 259.784 C 201.200 253.974,196.392 247.725,190.920 246.424 C 189.776 246.152,188.629 245.676,188.371 245.365 C 188.113 245.054,187.468 244.800,186.938 244.800 C 185.252 244.800,182.033 243.059,180.785 241.472 C 176.923 236.562,186.131 232.036,194.739 234.614 C 197.433 235.420,197.373 235.502,197.537 230.784 C 197.671 226.919,197.654 226.829,196.737 226.621 C 187.812 224.595,185.509 224.498,180.390 225.932 M238.143 225.197 C 237.671 225.387,235.781 225.856,233.943 226.239 C 232.104 226.621,230.318 227.172,229.974 227.462 C 229.630 227.753,228.767 228.192,228.058 228.440 C 225.516 229.326,219.284 235.413,218.573 237.706 C 218.420 238.198,217.986 239.050,217.608 239.600 C 217.230 240.150,216.505 242.740,215.997 245.355 L 215.074 250.111 216.005 255.155 C 216.583 258.286,217.203 260.504,217.639 261.000 C 218.025 261.440,218.459 262.278,218.604 262.862 C 218.749 263.446,219.302 264.333,219.834 264.832 C 220.365 265.331,220.800 265.894,220.800 266.083 C 220.800 266.469,223.440 269.200,223.813 269.200 C 223.945 269.200,224.641 269.648,225.358 270.195 C 231.038 274.527,240.645 276.272,248.000 274.308 L 251.400 273.400 251.512 268.100 L 251.623 262.800 250.701 262.800 C 250.193 262.800,249.333 263.115,248.789 263.500 C 247.383 264.495,237.674 264.538,236.543 263.554 C 236.134 263.198,235.338 262.798,234.773 262.664 C 234.208 262.531,232.875 261.633,231.811 260.670 C 230.048 259.074,229.418 258.182,227.952 255.200 C 226.827 252.913,227.289 246.042,228.738 243.509 C 229.925 241.434,233.760 237.600,234.649 237.600 C 234.849 237.600,235.729 237.198,236.606 236.706 C 238.674 235.547,245.806 235.410,247.829 236.491 C 248.506 236.852,249.586 237.204,250.229 237.274 L 251.400 237.400 251.512 232.111 C 251.622 226.889,251.611 226.818,250.712 226.621 C 250.210 226.511,248.211 226.056,246.268 225.610 C 242.574 224.763,239.594 224.611,238.143 225.197 M286.600 225.893 C 284.400 226.429,282.330 227.034,282.000 227.239 C 281.670 227.443,280.680 227.971,279.800 228.411 C 276.174 230.227,270.400 235.915,270.400 237.672 C 270.400 237.928,270.107 238.460,269.750 238.855 C 268.018 240.769,266.424 249.258,267.108 252.924 C 267.804 256.659,269.035 260.751,269.693 261.517 C 270.015 261.893,270.397 262.533,270.542 262.940 C 271.440 265.461,276.217 270.007,280.200 272.131 C 286.762 275.631,298.641 275.958,303.600 272.775 C 303.930 272.563,304.920 272.058,305.800 271.651 C 307.579 270.831,313.600 265.404,313.600 264.622 C 313.600 264.348,313.932 263.823,314.339 263.456 C 314.745 263.088,315.302 262.038,315.576 261.122 C 315.850 260.207,316.323 259.079,316.626 258.617 C 318.376 255.945,318.111 244.837,316.199 240.730 C 315.654 239.558,315.206 238.403,315.204 238.162 C 315.202 237.921,314.840 237.398,314.400 237.000 C 313.960 236.602,313.600 236.071,313.600 235.819 C 313.600 235.116,307.088 228.800,306.362 228.800 C 305.870 228.800,303.476 227.595,303.200 227.208 C 303.090 227.054,301.830 226.707,300.400 226.437 C 298.970 226.167,296.912 225.688,295.827 225.373 C 293.230 224.619,291.417 224.721,286.600 225.893 M138.800 249.946 C 138.800 271.068,138.866 273.540,139.433 273.757 C 141.413 274.517,149.184 274.005,149.403 273.100 C 149.523 272.605,149.571 261.940,149.511 249.400 L 149.400 226.600 144.100 226.488 L 138.800 226.377 138.800 249.946 M297.000 236.800 C 297.880 237.225,298.810 237.579,299.066 237.586 C 300.069 237.616,303.801 241.221,304.669 243.000 C 304.992 243.660,305.545 244.740,305.899 245.400 C 308.548 250.338,304.060 261.548,299.000 262.632 C 298.340 262.773,297.467 263.184,297.059 263.543 C 295.826 264.632,290.457 264.693,288.286 263.642 C 287.330 263.179,286.354 262.800,286.117 262.800 C 283.308 262.800,278.423 254.800,278.423 250.200 C 278.423 240.838,289.227 233.045,297.000 236.800 " stroke="none" fill="#f7fbfc" fill-rule="evenodd"></path><path id="path1" d="M0.000 200.000 L 0.000 400.000 200.000 400.000 L 400.000 400.000 400.000 200.000 L 400.000 0.000 200.000 0.000 L 0.000 0.000 0.000 200.000 M135.140 123.639 C 135.833 123.881,136.400 124.214,136.400 124.380 C 136.400 124.546,136.940 125.246,137.600 125.937 L 138.800 127.193 138.800 163.532 L 138.800 199.871 137.700 201.321 C 137.095 202.118,136.432 202.777,136.226 202.785 C 136.020 202.793,135.420 203.205,134.893 203.700 C 133.496 205.011,129.058 205.006,127.994 203.692 C 127.597 203.201,127.085 202.800,126.857 202.800 C 126.629 202.800,125.800 201.832,125.015 200.649 L 123.587 198.498 123.694 163.217 C 123.793 130.148,123.844 127.903,124.500 127.424 C 124.885 127.142,125.200 126.650,125.200 126.331 C 125.200 123.912,131.235 122.278,135.140 123.639 M275.024 124.944 C 277.200 127.184,277.165 126.555,277.165 163.600 C 277.165 201.605,277.252 200.316,274.536 202.684 C 272.026 204.872,266.000 205.515,266.000 203.595 C 266.000 203.389,265.475 202.949,264.833 202.617 C 264.086 202.231,263.571 201.580,263.402 200.807 C 263.256 200.143,262.978 199.600,262.784 199.600 C 261.319 199.600,261.042 129.721,262.500 128.110 C 262.885 127.685,263.200 127.071,263.200 126.747 C 263.200 126.117,265.402 123.855,266.400 123.461 C 268.669 122.565,273.526 123.400,275.024 124.944 M98.427 146.541 C 98.991 146.835,99.934 147.197,100.522 147.345 C 101.109 147.492,101.907 148.105,102.295 148.706 C 102.682 149.308,103.360 150.099,103.800 150.465 C 105.093 151.539,105.047 186.909,103.752 187.958 C 103.285 188.336,102.778 189.039,102.625 189.521 C 102.468 190.017,101.880 190.514,101.273 190.665 C 100.683 190.812,99.990 191.218,99.732 191.566 C 99.077 192.454,94.923 192.454,94.268 191.566 C 94.010 191.218,93.305 190.809,92.700 190.659 C 92.095 190.508,91.600 190.208,91.600 189.992 C 91.600 189.777,91.216 189.216,90.746 188.746 C 89.347 187.347,89.219 185.714,89.219 169.200 C 89.219 152.819,89.398 150.574,90.779 149.651 C 91.230 149.349,91.600 148.876,91.600 148.600 C 91.600 148.323,92.185 147.880,92.900 147.615 C 93.615 147.350,94.740 146.889,95.400 146.592 C 96.938 145.899,97.188 145.894,98.427 146.541 M236.473 146.565 C 237.063 146.873,238.100 147.246,238.776 147.395 C 239.453 147.543,240.212 148.048,240.462 148.516 C 240.713 148.984,241.296 149.673,241.759 150.048 C 242.592 150.723,242.600 150.909,242.600 169.216 L 242.600 187.702 241.700 188.300 C 241.205 188.629,240.800 189.155,240.800 189.469 C 240.800 189.784,240.215 190.312,239.500 190.644 C 238.785 190.976,237.750 191.514,237.200 191.840 C 235.991 192.555,233.436 192.338,232.437 191.434 C 232.052 191.085,231.440 190.800,231.078 190.800 C 230.715 190.800,230.102 190.305,229.715 189.700 C 229.328 189.095,228.751 188.398,228.432 188.152 C 226.719 186.825,226.652 152.402,228.360 150.515 C 228.715 150.122,229.319 149.312,229.702 148.716 C 230.117 148.069,231.003 147.464,231.899 147.216 C 232.725 146.987,233.670 146.623,234.000 146.406 C 234.804 145.878,235.206 145.904,236.473 146.565 M307.372 147.200 C 308.192 147.200,310.800 149.542,310.800 150.278 C 310.800 150.606,311.160 151.331,311.600 151.891 C 312.660 153.239,312.851 184.200,311.810 186.000 C 311.492 186.550,311.124 187.270,310.994 187.600 C 310.240 189.503,309.647 190.243,308.587 190.604 C 307.934 190.826,306.901 191.345,306.292 191.756 C 304.979 192.641,302.080 192.443,301.512 191.429 C 301.319 191.083,300.843 190.800,300.455 190.800 C 298.929 190.800,297.551 188.640,296.969 185.337 C 296.140 180.637,296.178 156.866,297.021 152.828 C 297.671 149.713,299.513 147.200,301.148 147.200 C 301.529 147.200,302.011 147.034,302.220 146.831 C 302.856 146.213,304.947 146.126,305.886 146.679 C 306.373 146.965,307.042 147.200,307.372 147.200 M168.200 146.800 C 168.336 147.020,168.793 147.200,169.216 147.200 C 170.348 147.200,172.800 149.743,172.800 150.918 C 172.800 151.459,173.070 152.126,173.400 152.400 C 174.290 153.139,174.302 184.648,173.413 185.824 C 173.090 186.251,172.820 186.973,172.813 187.428 C 172.798 188.354,170.793 190.800,170.048 190.800 C 169.784 190.800,169.047 191.185,168.410 191.656 C 167.069 192.648,164.166 192.515,163.370 191.427 C 163.118 191.082,162.641 190.800,162.310 190.800 C 161.529 190.800,159.698 188.961,159.382 187.860 C 159.247 187.387,158.871 186.413,158.547 185.695 C 157.800 184.040,157.890 153.313,158.645 152.361 C 158.890 152.052,159.209 151.303,159.354 150.695 C 159.697 149.257,161.865 147.200,163.036 147.200 C 163.540 147.200,164.064 147.020,164.200 146.800 C 164.336 146.580,165.236 146.400,166.200 146.400 C 167.164 146.400,168.064 146.580,168.200 146.800 M65.927 164.600 C 66.581 165.150,67.324 165.600,67.578 165.600 C 67.833 165.600,68.312 166.185,68.644 166.900 C 68.976 167.615,69.505 168.650,69.818 169.200 C 70.641 170.643,70.641 184.957,69.818 186.400 C 69.505 186.950,68.974 187.991,68.638 188.714 C 68.287 189.472,67.472 190.287,66.714 190.638 C 65.991 190.974,64.950 191.505,64.400 191.818 C 62.954 192.643,60.943 192.543,60.000 191.600 C 59.560 191.160,58.879 190.800,58.486 190.800 C 58.093 190.800,57.193 190.047,56.486 189.127 L 55.200 187.455 55.200 177.901 C 55.200 167.249,55.145 167.495,58.052 165.197 C 60.642 163.150,63.909 162.902,65.927 164.600 M203.907 164.300 C 204.295 164.685,205.105 165.319,205.707 165.709 C 206.308 166.099,206.800 166.611,206.800 166.846 C 206.800 167.081,207.160 167.731,207.600 168.291 C 208.820 169.842,208.827 185.749,207.608 187.299 C 207.172 187.853,206.646 188.754,206.437 189.302 C 206.213 189.893,205.611 190.411,204.961 190.574 C 204.357 190.726,203.420 191.198,202.878 191.625 C 201.557 192.663,199.151 192.651,198.200 191.600 C 197.802 191.160,197.207 190.800,196.878 190.800 C 196.550 190.800,195.633 190.133,194.840 189.317 L 193.400 187.834 193.400 178.017 L 193.400 168.200 194.600 166.700 C 195.260 165.875,195.952 165.200,196.137 165.200 C 196.322 165.200,196.931 164.840,197.491 164.400 C 198.853 163.329,202.863 163.266,203.907 164.300 M342.636 164.700 C 343.593 165.305,344.489 166.133,344.627 166.539 C 344.766 166.946,345.206 167.606,345.607 168.007 C 346.616 169.016,346.895 171.891,346.736 179.618 L 346.600 186.200 345.246 188.280 C 344.501 189.424,343.421 190.554,342.846 190.792 C 342.271 191.030,341.350 191.487,340.800 191.807 C 339.416 192.612,337.490 192.543,336.352 191.648 C 335.827 191.235,335.057 190.830,334.641 190.748 C 334.226 190.667,333.686 190.249,333.443 189.820 C 333.199 189.390,332.640 188.731,332.200 188.356 C 330.520 186.920,330.884 167.714,332.604 167.054 C 332.932 166.928,333.207 166.594,333.217 166.313 C 333.294 163.912,339.664 162.821,342.636 164.700 M117.533 223.570 C 118.671 223.790,119.729 224.366,120.620 225.252 L 121.975 226.600 121.987 232.877 C 122.000 238.918,121.966 239.178,121.111 239.777 C 119.876 240.642,118.416 240.555,117.348 239.551 C 115.786 238.083,105.529 238.203,103.550 239.712 C 102.766 240.311,101.847 240.800,101.509 240.800 C 101.170 240.800,100.796 241.173,100.676 241.630 C 100.557 242.086,100.104 242.552,99.670 242.666 C 99.101 242.815,98.810 243.341,98.629 244.549 C 98.490 245.471,98.022 246.810,97.589 247.523 C 96.534 249.257,96.597 250.994,97.802 253.368 C 98.351 254.450,98.800 255.743,98.800 256.241 C 98.800 256.787,99.109 257.244,99.580 257.394 C 100.008 257.530,100.470 257.992,100.606 258.420 C 100.743 258.849,101.008 259.200,101.196 259.200 C 101.385 259.200,102.127 259.695,102.847 260.300 C 104.537 261.721,116.016 262.034,117.490 260.700 C 118.521 259.766,120.050 259.815,121.125 260.816 C 122.411 262.014,122.472 272.934,121.200 274.400 C 120.760 274.907,120.400 275.468,120.400 275.646 C 120.400 277.147,100.548 277.253,98.532 275.763 C 97.910 275.302,96.721 274.798,95.891 274.643 C 95.061 274.488,94.163 274.009,93.895 273.580 C 93.627 273.151,93.107 272.800,92.741 272.800 C 91.866 272.800,85.200 266.289,85.200 265.435 C 85.200 265.072,84.932 264.672,84.604 264.546 C 84.276 264.420,83.795 263.571,83.535 262.659 C 83.275 261.746,82.833 260.727,82.554 260.394 C 80.672 258.149,80.691 242.154,82.579 240.006 C 82.871 239.673,83.237 238.807,83.391 238.082 C 83.545 237.357,84.105 236.296,84.636 235.724 C 85.166 235.151,85.600 234.525,85.600 234.331 C 85.600 233.755,90.105 229.200,90.675 229.200 C 90.964 229.200,91.200 229.030,91.200 228.821 C 91.200 228.260,95.214 225.704,96.600 225.383 C 97.260 225.230,98.250 224.821,98.800 224.475 C 100.678 223.293,113.013 222.696,117.533 223.570 M195.957 223.574 C 197.216 223.817,198.096 224.329,199.057 225.379 L 200.400 226.845 200.394 231.122 C 200.391 233.475,200.256 235.605,200.094 235.855 C 199.615 236.597,196.929 237.569,196.512 237.152 C 195.623 236.263,183.459 236.927,182.979 237.890 C 182.051 239.755,182.681 241.018,184.812 241.565 C 185.880 241.838,186.947 242.295,187.184 242.580 C 187.420 242.866,188.491 243.215,189.563 243.357 C 190.635 243.500,191.937 243.949,192.456 244.356 C 192.975 244.763,193.985 245.223,194.700 245.380 C 195.414 245.536,196.224 245.981,196.500 246.368 C 196.775 246.756,197.405 247.288,197.900 247.551 C 198.395 247.813,198.800 248.292,198.800 248.614 C 198.800 248.936,199.086 249.200,199.435 249.200 C 199.784 249.200,200.273 249.740,200.522 250.400 C 200.772 251.060,201.111 251.600,201.277 251.600 C 203.287 251.600,203.623 265.246,201.665 267.331 C 201.189 267.837,200.800 268.467,200.800 268.729 C 200.800 268.992,200.260 269.772,199.600 270.463 C 198.940 271.154,198.400 271.860,198.400 272.032 C 198.400 272.205,198.034 272.462,197.587 272.604 C 197.140 272.746,196.338 273.298,195.805 273.831 C 195.220 274.417,194.371 274.800,193.661 274.800 C 193.008 274.800,192.388 275.056,192.265 275.375 C 191.834 276.497,189.021 276.796,178.867 276.798 L 168.733 276.800 167.367 275.393 L 166.000 273.985 166.000 268.975 C 166.000 262.574,167.595 260.440,170.736 262.640 C 172.473 263.857,184.288 263.670,185.892 262.400 C 187.294 261.291,187.782 258.800,186.597 258.800 C 186.266 258.800,185.603 258.350,185.125 257.800 C 184.621 257.220,183.824 256.799,183.228 256.798 C 181.680 256.794,179.263 256.037,178.911 255.445 C 178.740 255.157,177.899 254.811,177.043 254.677 C 176.186 254.542,175.094 254.065,174.617 253.616 C 174.139 253.167,173.536 252.800,173.277 252.800 C 172.874 252.800,170.343 250.406,168.625 248.400 C 167.786 247.421,167.200 246.110,167.200 245.212 C 167.200 244.750,166.885 243.891,166.500 243.303 C 165.608 241.942,165.608 237.953,166.501 236.000 C 166.852 235.230,167.255 234.027,167.396 233.328 C 167.536 232.628,167.929 231.825,168.267 231.544 C 168.606 231.263,169.030 230.647,169.210 230.175 C 169.622 229.090,173.473 225.799,174.800 225.398 C 175.350 225.231,176.252 224.777,176.805 224.388 C 178.408 223.260,191.460 222.706,195.957 223.574 M249.977 223.629 C 251.040 223.874,252.284 224.553,253.073 225.319 L 254.391 226.600 254.396 232.700 C 254.400 238.270,254.330 238.870,253.600 239.600 C 252.547 240.653,250.628 240.628,249.547 239.547 C 248.068 238.068,237.460 238.198,235.842 239.714 C 235.204 240.312,234.344 240.800,233.929 240.800 C 233.514 240.800,233.064 241.115,232.929 241.500 C 232.793 241.885,232.281 242.650,231.790 243.200 C 229.383 245.897,229.441 255.818,231.874 257.412 C 232.383 257.745,232.800 258.284,232.800 258.609 C 232.800 258.934,233.042 259.200,233.338 259.200 C 233.634 259.200,234.389 259.642,235.017 260.181 C 236.969 261.858,248.221 262.210,249.948 260.647 C 250.925 259.763,252.634 259.834,253.600 260.800 C 254.330 261.530,254.400 262.130,254.396 267.700 L 254.391 273.800 252.952 275.200 L 251.512 276.600 243.056 276.730 C 233.576 276.876,231.485 276.685,230.371 275.571 C 229.947 275.147,229.248 274.800,228.819 274.800 C 227.809 274.800,226.000 273.975,226.000 273.515 C 226.000 273.319,225.456 272.969,224.792 272.737 C 224.127 272.505,223.401 271.975,223.177 271.558 C 222.954 271.141,222.592 270.800,222.373 270.800 C 221.853 270.800,219.200 268.147,219.200 267.627 C 219.200 267.408,218.840 267.035,218.400 266.800 C 217.960 266.565,217.600 266.134,217.600 265.844 C 217.600 265.554,217.166 264.849,216.636 264.276 C 216.105 263.704,215.546 262.666,215.393 261.969 C 215.240 261.272,214.729 260.048,214.257 259.251 C 212.956 257.048,212.949 243.344,214.249 241.200 C 214.715 240.430,215.222 239.272,215.375 238.627 C 215.527 237.982,216.090 236.933,216.626 236.296 C 217.162 235.660,217.600 234.877,217.600 234.557 C 217.600 234.237,217.877 233.869,218.215 233.739 C 218.553 233.609,219.098 232.985,219.425 232.352 C 219.753 231.718,220.286 231.200,220.610 231.200 C 220.935 231.200,221.200 230.935,221.200 230.610 C 221.200 230.286,221.718 229.753,222.352 229.425 C 222.985 229.098,223.609 228.553,223.739 228.215 C 223.869 227.877,224.216 227.600,224.510 227.600 C 224.804 227.600,225.642 227.159,226.372 226.621 C 227.101 226.082,228.259 225.519,228.943 225.368 C 229.628 225.218,230.611 224.818,231.129 224.479 C 232.989 223.260,245.859 222.680,249.977 223.629 M300.408 223.639 C 301.534 223.881,302.544 224.309,302.652 224.592 C 302.761 224.874,303.535 225.215,304.373 225.349 C 305.211 225.483,306.124 225.868,306.403 226.204 C 306.682 226.540,307.499 227.094,308.218 227.435 C 310.617 228.574,316.800 235.120,316.800 236.522 C 316.800 236.934,317.165 237.571,317.612 237.936 C 318.077 238.316,318.518 239.285,318.643 240.200 C 318.763 241.080,319.248 242.520,319.719 243.400 C 321.023 245.832,321.006 254.726,319.693 256.849 C 319.202 257.644,318.800 258.777,318.800 259.367 C 318.800 260.548,317.776 262.800,317.240 262.800 C 317.053 262.800,316.800 263.300,316.678 263.912 C 316.555 264.523,316.038 265.516,315.528 266.117 C 315.017 266.719,314.150 267.762,313.600 268.437 C 313.050 269.111,312.358 269.873,312.062 270.131 C 311.767 270.389,311.116 271.005,310.616 271.500 C 310.117 271.995,309.518 272.400,309.285 272.400 C 309.052 272.400,308.325 272.851,307.671 273.402 C 307.016 273.953,305.877 274.523,305.140 274.669 C 304.403 274.814,303.291 275.308,302.668 275.767 C 300.560 277.318,283.602 277.202,282.026 275.626 C 281.632 275.232,280.651 274.786,279.846 274.635 C 279.041 274.484,278.163 274.009,277.895 273.580 C 277.627 273.151,277.106 272.800,276.737 272.800 C 275.924 272.800,269.200 266.272,269.200 265.483 C 269.200 265.176,268.850 264.607,268.423 264.221 C 267.995 263.834,267.523 262.958,267.372 262.274 C 267.222 261.591,266.762 260.574,266.351 260.016 C 264.672 257.739,264.636 242.732,266.303 240.421 C 266.708 239.859,267.263 238.635,267.536 237.700 C 267.809 236.765,268.214 236.000,268.436 236.000 C 268.659 236.000,269.104 235.370,269.426 234.600 C 269.748 233.830,270.278 233.200,270.605 233.200 C 270.932 233.200,271.200 232.975,271.200 232.700 C 271.201 232.083,274.122 229.200,274.747 229.200 C 274.996 229.200,275.200 229.030,275.200 228.821 C 275.200 228.268,279.199 225.710,280.600 225.367 C 281.260 225.206,282.210 224.808,282.710 224.484 C 284.663 223.219,295.940 222.681,300.408 223.639 M150.964 224.600 C 152.440 226.076,152.448 226.244,152.319 251.489 L 152.200 274.778 151.290 275.689 C 149.375 277.606,138.044 277.220,137.001 275.202 C 135.939 273.149,136.119 226.666,137.196 224.900 L 137.988 223.600 143.976 223.600 C 149.830 223.600,149.986 223.622,150.964 224.600 M287.078 239.813 C 286.460 240.356,285.708 240.800,285.405 240.800 C 285.102 240.800,284.743 241.151,284.606 241.580 C 284.470 242.008,284.008 242.470,283.580 242.606 C 283.151 242.743,282.800 243.177,282.800 243.571 C 282.800 243.966,282.350 244.951,281.800 245.762 C 280.298 247.976,280.370 251.902,281.970 254.942 C 282.999 256.899,283.780 257.810,286.928 260.725 C 289.184 262.814,301.022 260.734,301.177 258.222 C 301.190 258.014,301.660 257.364,302.222 256.777 C 304.100 254.817,304.387 246.047,302.640 244.012 C 302.350 243.676,301.683 242.888,301.157 242.262 C 300.631 241.636,299.660 240.847,299.000 240.508 C 298.340 240.169,297.656 239.646,297.480 239.346 C 296.838 238.250,288.425 238.627,287.078 239.813 " stroke="none" fill="#04bcec" fill-rule="evenodd"></path><path id="path2" d="M130.024 124.284 C 128.450 124.593,126.519 126.319,125.835 128.029 C 125.037 130.025,124.862 195.765,125.647 198.595 C 127.054 203.661,133.682 204.668,136.667 200.270 L 137.800 198.600 137.909 164.101 C 138.015 130.408,137.999 129.566,137.226 128.051 C 136.335 126.304,134.278 124.403,133.269 124.395 C 132.901 124.392,132.240 124.322,131.800 124.241 C 131.360 124.159,130.561 124.179,130.024 124.284 M267.848 124.414 C 266.341 124.865,264.833 126.281,264.148 127.887 C 263.338 129.789,263.335 197.392,264.146 199.332 C 266.220 204.295,273.334 204.284,275.452 199.313 C 276.103 197.783,276.278 129.985,275.635 128.292 C 274.494 125.290,270.899 123.500,267.848 124.414 M133.853 125.810 C 137.251 128.116,136.985 125.085,137.118 163.000 L 137.235 196.600 136.175 198.835 C 134.496 202.375,130.402 203.116,127.760 200.358 L 126.600 199.148 126.482 164.874 C 126.354 128.067,126.378 127.357,127.728 126.798 C 128.207 126.599,129.050 126.072,129.600 125.627 C 130.935 124.547,132.063 124.595,133.853 125.810 M271.555 125.445 C 272.675 126.404,274.133 127.841,274.700 128.545 C 275.091 129.031,275.200 136.617,275.200 163.431 L 275.200 197.696 274.100 199.434 C 272.129 202.547,267.862 202.864,265.714 200.057 L 264.600 198.600 264.600 164.000 C 264.600 144.970,264.735 128.921,264.899 128.334 C 265.531 126.082,270.021 124.133,271.555 125.445 M95.710 148.022 C 93.884 148.408,92.637 149.324,91.545 151.080 L 90.600 152.600 90.600 169.229 L 90.600 185.857 91.698 187.517 C 94.779 192.174,101.674 191.173,102.953 185.884 C 103.723 182.701,103.261 152.888,102.416 151.232 C 101.119 148.690,98.493 147.432,95.710 148.022 M234.590 147.835 C 234.375 147.887,233.690 148.043,233.066 148.181 C 231.715 148.480,230.146 150.075,229.365 151.945 C 228.249 154.617,228.563 185.026,229.730 187.232 C 232.226 191.953,238.584 191.601,240.848 186.617 C 241.837 184.439,241.998 154.244,241.033 151.949 C 239.968 149.417,236.690 147.324,234.590 147.835 M161.974 149.500 C 159.778 151.565,159.605 153.006,159.605 169.200 C 159.605 184.925,159.812 186.798,161.764 188.751 C 164.314 191.301,168.863 190.962,171.085 188.058 L 172.200 186.600 172.325 170.200 C 172.408 159.297,172.306 153.331,172.020 152.400 C 170.647 147.928,165.290 146.381,161.974 149.500 M301.342 148.376 C 300.870 148.578,299.970 149.417,299.342 150.240 L 298.200 151.737 298.081 168.168 C 298.015 177.206,298.063 185.159,298.188 185.842 C 298.985 190.213,305.107 192.036,308.471 188.903 C 310.421 187.087,310.440 186.875,310.316 168.484 L 310.200 151.213 308.713 149.726 C 307.129 148.142,303.457 147.470,301.342 148.376 M99.650 149.500 C 99.995 149.885,100.620 150.400,101.039 150.644 C 101.769 151.069,101.800 151.814,101.800 168.936 L 101.800 186.784 100.549 188.036 C 97.936 190.649,93.365 189.735,92.366 186.400 C 91.521 183.581,92.061 151.168,92.961 150.643 C 93.380 150.399,94.005 149.885,94.350 149.500 C 94.791 149.008,95.580 148.800,97.000 148.800 C 98.420 148.800,99.209 149.008,99.650 149.500 M169.521 150.244 C 171.479 152.259,171.566 153.063,171.559 169.000 C 171.552 184.231,171.394 186.206,170.075 187.525 C 169.594 188.006,169.200 188.564,169.200 188.765 C 169.200 189.313,166.219 189.707,164.400 189.400 C 163.520 189.251,162.800 188.908,162.800 188.637 C 162.800 188.366,162.350 187.753,161.800 187.275 L 160.800 186.405 160.800 169.250 L 160.800 152.094 162.447 150.447 C 164.764 148.130,167.395 148.055,169.521 150.244 M238.262 149.916 C 240.282 151.652,240.478 153.636,240.325 170.800 C 240.178 187.303,240.173 187.333,237.705 188.859 C 234.996 190.533,231.275 189.050,230.383 185.941 C 229.884 184.200,229.881 154.210,230.380 152.470 C 231.384 148.968,235.576 147.610,238.262 149.916 M307.800 150.246 L 309.400 151.658 309.400 169.129 L 309.400 186.600 308.101 187.868 C 305.480 190.427,302.092 190.165,300.100 187.248 L 298.800 185.344 298.800 169.161 C 298.800 151.520,298.672 152.574,301.136 149.900 C 302.717 148.185,305.637 148.336,307.800 150.246 M60.851 165.403 C 58.667 166.079,56.915 167.722,56.400 169.577 C 55.887 171.422,55.886 184.174,56.398 186.018 C 58.013 191.832,66.787 191.832,68.402 186.018 C 68.892 184.254,68.908 171.950,68.424 169.861 C 67.632 166.449,64.129 164.387,60.851 165.403 M198.670 165.522 C 197.321 165.999,196.381 166.685,195.549 167.801 L 194.358 169.399 194.479 177.999 C 194.630 188.705,195.441 190.362,200.586 190.465 C 205.591 190.566,206.573 188.645,206.719 178.472 C 206.855 168.982,206.450 167.357,203.600 165.961 C 201.349 164.858,200.710 164.801,198.670 165.522 M337.000 165.397 C 335.106 166.062,332.995 168.324,332.648 170.061 C 332.123 172.684,332.374 185.168,332.978 186.513 C 335.198 191.454,341.991 191.962,344.192 187.352 C 345.215 185.210,345.209 170.126,344.185 168.224 C 342.815 165.680,339.692 164.452,337.000 165.397 M66.284 167.824 L 67.400 169.000 67.400 177.831 L 67.400 186.662 66.180 187.882 C 63.626 190.436,60.357 190.150,58.228 187.186 L 56.800 185.198 56.800 177.973 C 56.800 170.827,56.961 169.782,58.263 168.480 C 58.558 168.184,58.800 167.698,58.800 167.399 C 58.800 165.881,64.761 166.220,66.284 167.824 M204.186 167.641 L 205.600 168.883 205.595 177.341 C 205.588 186.889,205.565 187.048,203.952 188.340 C 201.083 190.636,197.563 189.737,195.952 186.296 C 194.546 183.293,194.512 172.390,195.900 169.574 C 196.395 168.569,196.800 167.547,196.800 167.302 C 196.800 165.889,202.489 166.151,204.186 167.641 M342.382 167.582 C 343.889 169.123,344.153 171.256,343.924 180.048 L 343.748 186.828 342.422 188.039 C 339.559 190.654,335.633 189.866,334.245 186.397 C 333.314 184.069,333.321 172.155,334.256 169.261 C 335.272 166.116,339.995 165.140,342.382 167.582 M105.400 224.381 C 77.443 227.088,73.453 265.822,100.200 274.854 C 103.613 276.007,113.985 276.241,117.200 275.239 C 120.199 274.304,120.400 273.854,120.400 268.087 C 120.400 261.347,120.451 261.401,115.290 262.681 C 104.035 265.473,95.495 259.471,96.085 249.185 C 96.611 240.022,105.373 234.898,115.696 237.718 C 120.409 239.005,120.400 239.017,120.400 232.130 C 120.400 226.481,120.344 226.327,117.916 225.293 C 115.975 224.467,109.434 223.990,105.400 224.381 M182.589 224.372 C 173.349 225.483,167.800 231.197,167.800 239.600 C 167.800 247.686,171.157 251.417,181.632 254.973 C 188.003 257.135,189.930 259.721,187.406 262.720 C 185.651 264.806,179.399 265.424,172.200 264.224 C 167.748 263.482,167.600 263.637,167.600 269.040 C 167.600 274.511,167.997 275.023,172.728 275.647 C 190.638 278.010,201.798 271.927,201.799 259.800 C 201.801 251.688,197.594 246.982,187.846 244.187 C 181.477 242.361,179.274 239.160,182.528 236.459 C 184.032 235.211,188.380 234.801,192.872 235.482 C 198.480 236.332,198.400 236.397,198.400 230.967 C 198.400 227.291,198.307 226.745,197.566 226.055 C 196.129 224.716,187.652 223.763,182.589 224.372 M237.600 224.382 C 212.664 227.025,205.533 260.130,227.203 272.648 C 233.927 276.532,248.318 277.271,251.890 273.916 C 252.745 273.113,252.800 272.749,252.800 267.953 C 252.800 261.475,252.649 261.292,248.283 262.494 C 236.843 265.642,227.954 259.779,228.503 249.449 C 229.017 239.794,237.472 234.716,247.957 237.764 C 252.665 239.133,252.800 238.972,252.800 231.994 L 252.800 226.788 251.510 226.004 C 249.226 224.615,242.643 223.847,237.600 224.382 M288.981 224.410 C 267.310 226.672,258.139 254.451,274.213 269.142 C 289.144 282.789,314.359 275.292,318.415 256.000 C 322.260 237.716,308.011 222.423,288.981 224.410 M114.656 225.825 C 119.830 227.024,119.600 226.699,119.600 232.817 C 119.600 237.888,119.262 238.196,115.600 236.465 C 113.638 235.538,106.234 235.541,104.800 236.469 C 104.250 236.825,103.350 237.251,102.800 237.416 C 96.178 239.395,92.838 250.749,96.908 257.448 C 98.373 259.861,101.573 262.800,102.734 262.800 C 103.066 262.800,103.685 263.115,104.109 263.500 C 105.617 264.867,116.800 264.588,116.800 263.184 C 116.800 262.055,119.108 262.839,119.350 264.050 C 119.695 265.777,119.653 272.505,119.294 273.027 C 117.404 275.771,98.630 275.319,96.849 272.486 C 96.712 272.268,95.970 271.823,95.200 271.496 C 94.430 271.169,93.367 270.519,92.839 270.051 C 92.310 269.583,91.635 269.200,91.339 269.200 C 91.042 269.200,90.800 268.926,90.800 268.591 C 90.800 268.257,90.350 267.778,89.800 267.527 C 89.250 267.277,88.800 266.858,88.800 266.598 C 88.800 266.337,88.433 265.792,87.985 265.387 C 87.537 264.981,86.822 263.919,86.395 263.025 C 85.969 262.131,85.451 261.130,85.244 260.800 C 83.411 257.871,82.423 249.091,83.543 245.679 C 83.985 244.333,84.467 242.425,84.615 241.440 C 84.763 240.455,85.225 239.340,85.642 238.962 C 86.059 238.585,86.400 237.968,86.400 237.592 C 86.400 237.216,86.937 236.299,87.594 235.554 C 88.250 234.809,88.790 233.971,88.794 233.690 C 88.797 233.410,89.250 233.009,89.800 232.800 C 90.350 232.591,90.800 232.252,90.800 232.047 C 90.800 231.556,94.254 229.106,95.887 228.439 C 96.594 228.150,97.381 227.663,97.636 227.357 C 97.890 227.051,98.571 226.790,99.149 226.778 C 99.727 226.767,101.730 226.336,103.600 225.822 C 108.062 224.595,109.350 224.596,114.656 225.825 M139.600 225.078 C 138.004 225.648,138.000 225.711,138.000 250.103 C 138.000 265.571,138.142 273.918,138.414 274.426 C 139.025 275.569,148.710 275.605,149.738 274.469 C 150.881 273.206,150.735 226.911,149.584 225.675 C 148.781 224.813,141.551 224.380,139.600 225.078 M192.800 225.755 C 194.450 226.114,196.222 226.504,196.737 226.621 C 197.654 226.829,197.671 226.919,197.537 230.784 C 197.373 235.502,197.433 235.420,194.739 234.614 C 186.131 232.036,176.923 236.562,180.785 241.472 C 182.033 243.059,185.252 244.800,186.938 244.800 C 187.468 244.800,188.113 245.054,188.371 245.365 C 188.629 245.676,189.776 246.152,190.920 246.424 C 196.392 247.725,201.200 253.974,201.200 259.784 C 201.200 263.993,196.935 271.600,194.576 271.600 C 194.327 271.600,193.824 271.932,193.456 272.338 C 193.089 272.743,191.756 273.299,190.494 273.573 C 189.233 273.846,187.429 274.324,186.486 274.635 C 184.187 275.393,176.809 275.369,173.325 274.593 C 171.826 274.259,170.195 273.896,169.700 273.785 C 168.833 273.592,168.800 273.421,168.800 269.192 L 168.800 264.800 170.151 264.800 C 170.894 264.800,172.199 265.091,173.051 265.447 C 177.362 267.249,187.823 265.649,188.644 263.063 C 188.788 262.609,189.152 261.991,189.453 261.690 C 190.436 260.707,188.713 257.003,186.782 255.946 C 185.497 255.242,182.503 254.042,181.386 253.783 C 177.736 252.936,170.400 248.155,170.400 246.624 C 170.400 246.348,170.040 245.707,169.600 245.200 C 168.766 244.238,168.336 234.800,169.126 234.800 C 169.512 234.800,170.800 232.210,170.800 231.433 C 170.800 231.136,171.173 230.796,171.630 230.676 C 172.086 230.557,172.557 230.086,172.676 229.630 C 172.796 229.173,173.160 228.800,173.485 228.800 C 173.810 228.800,174.640 228.395,175.328 227.900 C 178.932 225.308,186.489 224.380,192.800 225.755 M246.268 225.610 C 248.211 226.056,250.210 226.511,250.712 226.621 C 251.611 226.818,251.622 226.889,251.512 232.111 L 251.400 237.400 250.229 237.274 C 249.586 237.204,248.506 236.852,247.829 236.491 C 245.806 235.410,238.674 235.547,236.606 236.706 C 235.729 237.198,234.849 237.600,234.649 237.600 C 233.760 237.600,229.925 241.434,228.738 243.509 C 227.289 246.042,226.827 252.913,227.952 255.200 C 229.418 258.182,230.048 259.074,231.811 260.670 C 232.875 261.633,234.208 262.531,234.773 262.664 C 235.338 262.798,236.134 263.198,236.543 263.554 C 237.674 264.538,247.383 264.495,248.789 263.500 C 249.333 263.115,250.193 262.800,250.701 262.800 L 251.623 262.800 251.512 268.100 L 251.400 273.400 248.000 274.308 C 240.645 276.272,231.038 274.527,225.358 270.195 C 224.641 269.648,223.945 269.200,223.813 269.200 C 223.440 269.200,220.800 266.469,220.800 266.083 C 220.800 265.894,220.365 265.331,219.834 264.832 C 219.302 264.333,218.749 263.446,218.604 262.862 C 218.459 262.278,218.025 261.440,217.639 261.000 C 217.203 260.504,216.583 258.286,216.005 255.155 L 215.074 250.111 215.997 245.355 C 216.505 242.740,217.230 240.150,217.608 239.600 C 217.986 239.050,218.420 238.198,218.573 237.706 C 219.284 235.413,225.516 229.326,228.058 228.440 C 228.767 228.192,229.630 227.753,229.974 227.462 C 230.318 227.172,232.104 226.621,233.943 226.239 C 235.781 225.856,237.671 225.387,238.143 225.197 C 239.594 224.611,242.574 224.763,246.268 225.610 M295.827 225.373 C 296.912 225.688,298.970 226.167,300.400 226.437 C 301.830 226.707,303.090 227.054,303.200 227.208 C 303.476 227.595,305.870 228.800,306.362 228.800 C 307.088 228.800,313.600 235.116,313.600 235.819 C 313.600 236.071,313.960 236.602,314.400 237.000 C 314.840 237.398,315.202 237.921,315.204 238.162 C 315.206 238.403,315.654 239.558,316.199 240.730 C 318.111 244.837,318.376 255.945,316.626 258.617 C 316.323 259.079,315.850 260.207,315.576 261.122 C 315.302 262.038,314.745 263.088,314.339 263.456 C 313.932 263.823,313.600 264.348,313.600 264.622 C 313.600 265.404,307.579 270.831,305.800 271.651 C 304.920 272.058,303.930 272.563,303.600 272.775 C 298.641 275.958,286.762 275.631,280.200 272.131 C 276.217 270.007,271.440 265.461,270.542 262.940 C 270.397 262.533,270.015 261.893,269.693 261.517 C 269.035 260.751,267.804 256.659,267.108 252.924 C 266.424 249.258,268.018 240.769,269.750 238.855 C 270.107 238.460,270.400 237.928,270.400 237.672 C 270.400 235.915,276.174 230.227,279.800 228.411 C 280.680 227.971,281.670 227.443,282.000 227.239 C 284.554 225.657,292.918 224.528,295.827 225.373 M149.511 249.400 C 149.571 261.940,149.523 272.605,149.403 273.100 C 149.184 274.005,141.413 274.517,139.433 273.757 C 138.866 273.540,138.800 271.068,138.800 249.946 L 138.800 226.377 144.100 226.488 L 149.400 226.600 149.511 249.400 M287.244 237.049 C 277.279 241.598,275.502 254.379,283.873 261.300 C 284.871 262.125,285.881 262.800,286.117 262.800 C 286.354 262.800,287.330 263.179,288.286 263.642 C 290.457 264.693,295.826 264.632,297.059 263.543 C 297.467 263.184,298.340 262.773,299.000 262.632 C 304.060 261.548,308.548 250.338,305.899 245.400 C 305.545 244.740,304.992 243.660,304.669 243.000 C 303.801 241.221,300.069 237.616,299.066 237.586 C 298.810 237.579,297.880 237.225,297.000 236.800 C 294.607 235.644,290.069 235.760,287.244 237.049 M298.884 238.643 C 304.142 241.363,306.918 248.846,304.785 254.549 C 299.656 268.257,279.811 264.802,279.802 250.200 C 279.796 240.130,289.911 234.004,298.884 238.643 " stroke="none" fill="#a0e8f9" fill-rule="evenodd"></path><path id="path3" d="M128.600 124.044 C 124.147 126.633,124.400 124.254,124.400 163.597 L 124.400 197.843 125.403 199.855 C 125.978 201.009,126.874 202.109,127.503 202.433 C 128.106 202.744,128.709 203.148,128.842 203.330 C 130.110 205.061,135.139 203.477,137.178 200.704 L 138.400 199.042 138.400 163.599 L 138.400 128.155 137.462 126.884 C 135.348 124.019,131.025 122.634,128.600 124.044 M267.194 123.907 C 265.179 124.882,263.940 126.283,263.376 128.225 C 262.389 131.620,262.703 198.456,263.715 200.308 C 265.215 203.056,270.593 205.096,271.967 203.439 C 272.223 203.131,272.849 202.774,273.357 202.647 C 273.865 202.519,274.803 201.662,275.441 200.742 L 276.600 199.069 276.725 166.234 C 276.875 127.185,276.923 128.107,274.607 125.656 C 272.860 123.807,269.191 122.941,267.194 123.907 M133.269 124.395 C 134.278 124.403,136.335 126.304,137.226 128.051 C 137.999 129.566,138.015 130.408,137.909 164.101 L 137.800 198.600 136.667 200.270 C 133.682 204.668,127.054 203.661,125.647 198.595 C 124.862 195.765,125.037 130.025,125.835 128.029 C 126.825 125.554,129.550 123.824,131.800 124.241 C 132.240 124.322,132.901 124.392,133.269 124.395 M271.553 124.444 C 273.039 124.961,275.112 126.916,275.635 128.292 C 276.278 129.985,276.103 197.783,275.452 199.313 C 273.334 204.284,266.220 204.295,264.146 199.332 C 263.335 197.392,263.338 129.789,264.148 127.887 C 265.431 124.876,268.586 123.409,271.553 124.444 M94.011 147.878 C 93.247 148.275,92.032 149.379,91.311 150.331 L 90.000 152.062 90.000 169.096 L 90.000 186.130 91.242 188.065 C 91.925 189.129,92.510 190.005,92.542 190.011 C 92.574 190.017,93.581 190.348,94.781 190.746 C 97.893 191.778,101.411 190.649,102.548 188.253 C 102.918 187.473,103.397 186.726,103.611 186.593 C 103.854 186.443,103.995 179.931,103.987 169.276 L 103.973 152.200 102.887 150.638 C 100.652 147.427,97.039 146.304,94.011 147.878 M163.238 147.701 C 162.489 147.975,161.319 148.891,160.638 149.737 L 159.400 151.273 159.276 167.737 C 159.132 186.980,159.134 187.006,161.126 189.122 C 164.609 192.819,171.734 191.053,172.605 186.277 C 173.319 182.365,172.605 151.264,171.775 150.154 C 169.823 147.540,166.378 146.551,163.238 147.701 M232.007 147.901 C 231.242 148.285,230.072 149.410,229.407 150.400 L 228.200 152.200 228.200 169.200 L 228.200 186.200 229.408 187.989 C 231.360 190.880,234.003 191.813,237.219 190.746 C 238.419 190.348,239.432 190.017,239.472 190.011 C 239.511 190.005,240.141 189.145,240.872 188.100 L 242.200 186.200 242.322 170.200 C 242.450 153.292,242.398 152.304,241.296 150.808 C 238.698 147.282,235.335 146.229,232.007 147.901 M301.400 147.767 C 299.527 148.603,297.940 150.552,297.569 152.473 C 297.128 154.755,297.137 183.693,297.580 185.987 C 298.774 192.175,309.019 192.864,310.700 186.869 C 311.094 185.464,311.090 152.921,310.695 151.512 C 309.786 148.263,304.794 146.252,301.400 147.767 M100.604 148.966 C 103.165 150.644,103.243 151.237,103.233 168.809 C 103.228 177.586,103.102 185.270,102.953 185.884 C 101.674 191.173,94.779 192.174,91.698 187.517 L 90.600 185.857 90.600 169.229 L 90.600 152.600 91.545 151.080 C 93.570 147.823,97.470 146.913,100.604 148.966 M239.260 149.451 C 241.581 151.663,241.601 151.828,241.591 169.149 C 241.583 183.662,241.520 185.136,240.848 186.617 C 238.584 191.601,232.226 191.953,229.730 187.232 C 228.563 185.026,228.249 154.617,229.365 151.945 C 230.146 150.075,231.715 148.480,233.066 148.181 C 233.690 148.043,234.375 147.887,234.590 147.835 C 235.688 147.568,238.193 148.435,239.260 149.451 M168.884 148.445 C 172.319 150.284,172.469 151.232,172.325 170.200 L 172.200 186.600 171.085 188.058 C 167.658 192.537,160.926 190.672,159.995 184.986 C 159.490 181.898,159.486 156.533,159.992 153.400 C 160.695 149.039,165.251 146.500,168.884 148.445 M308.713 149.726 L 310.200 151.213 310.316 168.484 C 310.440 186.875,310.421 187.087,308.471 188.903 C 305.107 192.036,298.985 190.213,298.188 185.842 C 298.063 185.159,298.015 177.206,298.081 168.168 L 298.200 151.737 299.342 150.240 C 301.529 147.373,306.108 147.122,308.713 149.726 M61.800 164.279 C 59.797 164.721,57.673 166.051,56.679 167.487 L 55.600 169.043 55.600 177.832 C 55.600 187.240,55.582 187.144,57.786 189.454 C 60.907 192.725,67.653 190.993,68.895 186.600 C 70.286 181.677,69.603 169.731,67.769 166.905 C 66.815 165.435,63.389 163.928,61.800 164.279 M199.597 164.384 C 197.630 164.963,196.114 165.975,194.965 167.476 L 193.800 169.000 193.671 177.000 C 193.489 188.365,194.394 190.281,200.400 191.244 C 202.815 191.631,206.083 189.322,207.050 186.545 C 208.038 183.708,207.773 170.620,206.684 168.403 C 205.320 165.630,201.919 163.700,199.597 164.384 M338.000 164.260 C 335.466 165.159,334.018 166.131,332.979 167.630 L 331.800 169.330 331.664 176.788 C 331.510 185.201,331.774 186.774,333.696 188.900 C 335.099 190.452,338.653 191.793,339.664 191.152 C 339.959 190.965,340.581 190.809,341.046 190.806 C 347.273 190.761,348.366 168.975,342.318 165.455 C 340.421 164.351,338.916 163.934,338.000 164.260 M65.200 165.813 C 68.272 167.383,68.778 169.104,68.788 178.000 C 68.797 185.561,68.525 186.934,66.666 188.736 C 63.363 191.938,57.621 190.418,56.398 186.018 C 55.886 184.174,55.887 171.422,56.400 169.577 C 57.395 165.994,61.838 164.094,65.200 165.813 M203.600 165.961 C 206.450 167.357,206.855 168.982,206.719 178.472 C 206.573 188.645,205.591 190.566,200.586 190.465 C 195.441 190.362,194.630 188.705,194.479 177.999 L 194.358 169.399 195.549 167.801 C 197.585 165.071,200.448 164.417,203.600 165.961 M341.423 165.787 C 344.775 167.457,344.982 168.181,344.877 177.889 C 344.764 188.400,343.817 190.471,339.127 190.464 C 333.688 190.457,332.400 188.120,332.400 178.263 C 332.400 168.649,333.069 166.777,337.000 165.397 C 339.128 164.650,339.144 164.651,341.423 165.787 M103.000 223.845 C 95.651 225.701,88.211 230.690,85.596 235.516 C 85.154 236.332,84.619 237.270,84.409 237.600 C 81.675 241.885,80.628 254.524,82.652 258.800 C 83.121 259.790,83.637 261.050,83.800 261.600 C 83.962 262.150,84.322 262.870,84.599 263.200 C 84.877 263.530,85.382 264.351,85.723 265.025 C 86.855 267.262,92.130 272.217,93.835 272.645 C 94.366 272.778,94.800 273.032,94.800 273.210 C 94.800 273.388,95.655 273.836,96.700 274.204 C 97.745 274.573,99.097 275.139,99.703 275.462 C 101.251 276.285,107.558 276.892,111.600 276.605 C 117.183 276.210,118.391 275.956,119.628 274.915 L 120.800 273.929 120.800 267.987 C 120.800 260.947,120.557 260.470,117.448 261.406 C 110.100 263.617,103.932 262.773,100.228 259.048 C 95.423 254.215,95.508 245.232,100.397 241.200 C 101.064 240.650,101.961 239.892,102.390 239.515 C 104.615 237.561,112.780 237.295,117.769 239.014 C 120.650 240.006,120.801 239.689,120.794 232.686 C 120.787 225.838,120.842 226.021,118.437 224.771 C 116.701 223.867,105.557 223.199,103.000 223.845 M180.200 223.869 C 179.540 223.980,178.804 224.232,178.565 224.430 C 178.326 224.628,177.379 225.055,176.459 225.379 C 166.398 228.929,163.601 242.999,171.479 250.436 C 174.023 252.838,176.774 254.189,183.379 256.280 C 188.969 258.050,189.239 263.005,183.789 263.822 C 181.372 264.185,171.865 263.780,170.064 263.238 C 166.762 262.243,165.061 272.047,168.022 275.005 C 169.926 276.907,187.679 277.304,190.524 275.508 C 191.006 275.204,192.146 274.738,193.059 274.474 C 193.971 274.209,194.820 273.724,194.946 273.396 C 195.072 273.068,195.412 272.800,195.701 272.800 C 196.584 272.800,200.207 268.733,201.403 266.400 C 202.813 263.647,203.122 256.366,201.921 254.200 C 201.555 253.540,200.994 252.444,200.675 251.764 C 200.096 250.531,196.332 247.007,194.674 246.146 C 192.953 245.252,189.770 244.017,188.105 243.598 C 181.775 242.006,179.644 237.694,184.525 236.359 C 186.151 235.914,194.000 236.102,196.461 236.644 C 199.014 237.207,200.627 229.015,198.548 226.047 C 197.210 224.137,186.309 222.844,180.200 223.869 M234.800 223.988 C 221.274 227.289,213.070 238.149,213.720 251.892 C 213.910 255.925,215.306 261.178,216.618 262.800 C 216.885 263.130,217.406 263.997,217.776 264.727 C 218.641 266.433,223.575 271.364,225.284 272.230 C 226.008 272.597,226.870 273.126,227.200 273.407 C 227.530 273.687,228.610 274.199,229.600 274.545 C 230.590 274.891,232.210 275.475,233.200 275.843 C 237.791 277.551,250.143 276.596,252.379 274.359 L 253.600 273.138 253.600 268.014 C 253.600 260.601,253.549 260.559,246.452 262.054 C 238.657 263.695,232.012 261.055,230.199 255.597 C 229.836 254.504,229.373 253.507,229.169 253.381 C 228.672 253.074,228.697 247.768,229.200 246.895 C 229.420 246.513,229.954 245.345,230.386 244.300 C 230.818 243.255,231.329 242.400,231.522 242.400 C 231.714 242.400,232.077 241.950,232.327 241.400 C 232.578 240.850,233.000 240.400,233.266 240.400 C 233.531 240.400,234.143 240.030,234.624 239.577 C 236.830 237.505,248.256 237.255,250.632 239.227 C 251.272 239.758,252.594 239.133,253.191 238.017 C 254.043 236.426,253.700 227.321,252.747 226.225 C 250.884 224.083,239.980 222.724,234.800 223.988 M286.400 223.990 C 284.616 224.424,280.292 226.076,279.560 226.603 C 279.252 226.825,278.309 227.357,277.464 227.786 C 275.561 228.751,270.656 233.535,269.764 235.296 C 269.401 236.013,268.878 236.870,268.602 237.200 C 268.327 237.530,267.871 238.520,267.590 239.400 C 267.309 240.280,266.791 241.442,266.439 241.982 C 265.354 243.649,265.515 256.399,266.652 258.800 C 267.121 259.790,267.634 261.024,267.792 261.541 C 268.542 263.993,272.544 268.969,275.653 271.314 C 277.472 272.686,279.525 273.922,280.459 274.208 C 280.976 274.366,282.210 274.861,283.200 275.307 C 286.890 276.972,298.855 277.091,301.332 275.488 C 301.809 275.179,302.740 274.794,303.400 274.633 C 307.368 273.661,315.512 266.356,316.591 262.800 C 316.758 262.250,317.147 261.512,317.456 261.159 C 317.765 260.807,318.271 259.367,318.582 257.959 C 318.893 256.552,319.360 254.682,319.619 253.805 C 320.164 251.958,319.960 246.194,319.307 245.000 C 319.066 244.560,318.661 243.165,318.406 241.900 C 318.151 240.635,317.694 239.352,317.391 239.048 C 317.088 238.745,316.726 238.043,316.586 237.488 C 316.447 236.933,315.988 236.109,315.567 235.656 C 315.145 235.204,314.798 234.691,314.796 234.517 C 314.783 233.555,309.427 228.838,306.364 227.089 C 301.150 224.113,291.838 222.668,286.400 223.990 M114.916 224.628 C 119.895 225.157,120.400 225.847,120.400 232.130 C 120.400 239.017,120.409 239.005,115.696 237.718 C 105.373 234.898,96.611 240.022,96.085 249.185 C 95.495 259.471,104.035 265.473,115.290 262.681 C 120.451 261.401,120.400 261.347,120.400 268.087 C 120.400 275.363,119.765 275.800,109.200 275.800 C 92.797 275.800,82.283 265.800,82.283 250.200 C 82.283 232.646,95.188 222.534,114.916 224.628 M139.203 224.357 C 137.216 224.910,137.212 224.954,137.206 250.126 C 137.199 278.751,136.452 275.988,144.200 275.988 C 149.997 275.988,150.252 275.910,150.807 273.975 C 151.355 272.064,151.334 227.604,150.784 226.159 C 150.017 224.139,143.582 223.138,139.203 224.357 M194.266 224.854 C 198.068 225.507,198.400 225.998,198.400 230.967 C 198.400 236.397,198.480 236.332,192.872 235.482 C 188.380 234.801,184.032 235.211,182.528 236.459 C 179.274 239.160,181.477 242.361,187.846 244.187 C 197.594 246.982,201.801 251.688,201.799 259.800 C 201.798 271.927,190.638 278.010,172.728 275.647 C 167.997 275.023,167.600 274.511,167.600 269.040 C 167.600 263.637,167.748 263.482,172.200 264.224 C 179.399 265.424,185.651 264.806,187.406 262.720 C 189.930 259.721,188.003 257.135,181.632 254.973 C 171.157 251.417,167.800 247.686,167.800 239.600 C 167.800 227.852,178.151 222.085,194.266 224.854 M248.210 224.839 C 249.316 225.048,250.801 225.572,251.510 226.004 L 252.800 226.788 252.800 231.994 C 252.800 238.972,252.665 239.133,247.957 237.764 C 237.472 234.716,229.017 239.794,228.503 249.449 C 227.954 259.779,236.843 265.642,248.283 262.494 C 252.649 261.292,252.800 261.475,252.800 267.953 C 252.800 275.270,251.254 276.264,240.422 275.909 C 224.467 275.386,214.577 265.535,214.613 250.200 C 214.655 232.341,229.331 221.262,248.210 224.839 M300.200 225.267 C 315.703 229.731,323.511 246.899,316.577 261.278 C 304.545 286.229,266.342 277.976,266.223 250.400 C 266.146 232.442,282.669 220.220,300.200 225.267 M149.584 225.675 C 150.735 226.911,150.881 273.206,149.738 274.469 C 148.710 275.605,139.025 275.569,138.414 274.426 C 137.766 273.216,137.849 226.744,138.500 225.922 C 139.679 224.435,148.251 224.244,149.584 225.675 M290.848 237.281 C 279.932 238.941,275.778 251.956,283.696 259.689 C 288.974 264.843,298.075 264.145,302.779 258.227 C 309.967 249.181,302.205 235.554,290.848 237.281 M297.667 238.852 C 302.462 241.548,304.212 244.141,304.692 249.258 C 304.931 251.813,303.587 257.077,302.598 257.456 C 302.286 257.576,301.930 257.989,301.808 258.374 C 300.760 261.675,291.607 263.431,287.022 261.210 C 281.090 258.336,278.259 249.269,281.726 244.244 C 282.317 243.388,282.800 242.539,282.800 242.357 C 282.800 239.478,294.058 236.824,297.667 238.852 " stroke="none" fill="#53d2f4" fill-rule="evenodd"></path><path id="path4" d="M128.000 123.481 C 127.033 123.833,125.200 125.699,125.200 126.331 C 125.200 126.650,124.885 127.142,124.500 127.424 C 123.844 127.903,123.793 130.148,123.694 163.217 L 123.587 198.498 125.015 200.649 C 125.800 201.832,126.629 202.800,126.857 202.800 C 127.085 202.800,127.597 203.201,127.994 203.692 C 129.058 205.006,133.496 205.011,134.893 203.700 C 135.420 203.205,136.020 202.793,136.226 202.785 C 136.432 202.777,137.095 202.118,137.700 201.321 L 138.800 199.871 138.800 163.532 L 138.800 127.193 137.600 125.937 C 136.940 125.246,136.400 124.546,136.400 124.380 C 136.400 123.475,129.922 122.782,128.000 123.481 M266.400 123.461 C 265.402 123.855,263.200 126.117,263.200 126.747 C 263.200 127.071,262.885 127.685,262.500 128.110 C 261.042 129.721,261.319 199.600,262.784 199.600 C 262.978 199.600,263.256 200.143,263.402 200.807 C 263.571 201.580,264.086 202.231,264.833 202.617 C 265.475 202.949,266.000 203.389,266.000 203.595 C 266.000 204.218,269.236 204.886,270.972 204.620 C 273.449 204.241,276.368 201.535,276.818 199.198 C 277.255 196.934,277.279 130.389,276.844 128.144 C 276.116 124.386,270.470 121.854,266.400 123.461 M135.390 124.721 C 136.014 125.211,136.946 126.185,137.462 126.884 L 138.400 128.155 138.400 163.599 L 138.400 199.042 137.178 200.704 C 135.139 203.477,130.110 205.061,128.842 203.330 C 128.709 203.148,128.106 202.744,127.503 202.433 C 126.874 202.109,125.978 201.009,125.403 199.855 L 124.400 197.843 124.400 163.597 C 124.400 125.804,124.279 127.688,126.863 125.355 C 129.156 123.286,133.185 122.986,135.390 124.721 M274.607 125.656 C 276.923 128.107,276.875 127.185,276.725 166.234 L 276.600 199.069 275.441 200.742 C 274.803 201.662,273.865 202.519,273.357 202.647 C 272.849 202.774,272.223 203.131,271.967 203.439 C 270.593 205.096,265.215 203.056,263.715 200.308 C 262.703 198.456,262.389 131.620,263.376 128.225 C 264.800 123.325,271.053 121.895,274.607 125.656 M95.400 146.592 C 94.740 146.889,93.615 147.350,92.900 147.615 C 92.185 147.880,91.600 148.323,91.600 148.600 C 91.600 148.876,91.230 149.349,90.779 149.651 C 89.398 150.574,89.219 152.819,89.219 169.200 C 89.219 185.714,89.347 187.347,90.746 188.746 C 91.216 189.216,91.600 189.777,91.600 189.992 C 91.600 190.208,92.095 190.508,92.700 190.659 C 93.305 190.809,94.010 191.218,94.268 191.566 C 94.923 192.454,99.077 192.454,99.732 191.566 C 99.990 191.218,100.683 190.812,101.273 190.665 C 101.880 190.514,102.468 190.017,102.625 189.521 C 102.778 189.039,103.285 188.336,103.752 187.958 C 105.047 186.909,105.093 151.539,103.800 150.465 C 103.360 150.099,102.682 149.308,102.295 148.706 C 101.907 148.105,101.109 147.492,100.522 147.345 C 99.934 147.197,98.991 146.835,98.427 146.541 C 97.188 145.894,96.938 145.899,95.400 146.592 M234.000 146.406 C 233.670 146.623,232.725 146.987,231.899 147.216 C 231.003 147.464,230.117 148.069,229.702 148.716 C 229.319 149.312,228.715 150.122,228.360 150.515 C 226.652 152.402,226.719 186.825,228.432 188.152 C 228.751 188.398,229.328 189.095,229.715 189.700 C 230.102 190.305,230.715 190.800,231.078 190.800 C 231.440 190.800,232.052 191.085,232.437 191.434 C 233.436 192.338,235.991 192.555,237.200 191.840 C 237.750 191.514,238.785 190.976,239.500 190.644 C 240.215 190.312,240.800 189.784,240.800 189.469 C 240.800 189.155,241.205 188.629,241.700 188.300 L 242.600 187.702 242.600 169.216 C 242.600 150.909,242.592 150.723,241.759 150.048 C 241.296 149.673,240.713 148.984,240.462 148.516 C 240.212 148.048,239.453 147.543,238.776 147.395 C 238.100 147.246,237.063 146.873,236.473 146.565 C 235.206 145.904,234.804 145.878,234.000 146.406 M303.800 146.309 C 303.140 146.393,302.429 146.628,302.220 146.831 C 302.011 147.034,301.529 147.200,301.148 147.200 C 299.513 147.200,297.671 149.713,297.021 152.828 C 296.178 156.866,296.140 180.637,296.969 185.337 C 297.551 188.640,298.929 190.800,300.455 190.800 C 300.843 190.800,301.319 191.083,301.512 191.429 C 302.080 192.443,304.979 192.641,306.292 191.756 C 306.901 191.345,307.934 190.826,308.587 190.604 C 309.647 190.243,310.240 189.503,310.994 187.600 C 311.124 187.270,311.492 186.550,311.810 186.000 C 312.851 184.200,312.660 153.239,311.600 151.891 C 311.160 151.331,310.800 150.606,310.800 150.278 C 310.800 149.542,308.192 147.200,307.372 147.200 C 307.042 147.200,306.373 146.965,305.886 146.679 C 305.399 146.392,304.460 146.226,303.800 146.309 M164.200 146.800 C 164.064 147.020,163.540 147.200,163.036 147.200 C 161.865 147.200,159.697 149.257,159.354 150.695 C 159.209 151.303,158.890 152.052,158.645 152.361 C 157.890 153.313,157.800 184.040,158.547 185.695 C 158.871 186.413,159.247 187.387,159.382 187.860 C 159.678 188.893,161.510 190.800,162.208 190.800 C 162.482 190.800,162.017 190.067,161.174 189.172 C 159.127 186.998,159.131 187.049,159.276 167.737 L 159.400 151.273 160.639 149.737 C 163.489 146.201,168.977 146.407,171.775 150.154 C 172.605 151.264,173.319 182.365,172.605 186.277 C 172.043 189.362,168.500 191.546,164.928 191.010 C 162.981 190.718,162.528 191.364,164.226 192.010 C 165.834 192.621,167.402 192.471,168.509 191.600 C 169.069 191.160,169.752 190.800,170.027 190.800 C 170.789 190.800,172.798 188.367,172.813 187.428 C 172.820 186.973,173.090 186.251,173.413 185.824 C 174.302 184.648,174.290 153.139,173.400 152.400 C 173.070 152.126,172.800 151.459,172.800 150.918 C 172.800 149.743,170.348 147.200,169.216 147.200 C 168.793 147.200,168.336 147.020,168.200 146.800 C 168.064 146.580,167.164 146.400,166.200 146.400 C 165.236 146.400,164.336 146.580,164.200 146.800 M100.717 148.273 C 101.312 148.715,102.289 149.779,102.887 150.638 L 103.973 152.200 103.987 169.276 C 103.995 179.931,103.854 186.443,103.611 186.593 C 103.397 186.726,102.918 187.473,102.548 188.253 C 101.411 190.649,97.893 191.778,94.781 190.746 C 93.581 190.348,92.574 190.017,92.542 190.011 C 92.510 190.005,91.925 189.129,91.242 188.065 L 90.000 186.130 90.000 169.096 L 90.000 152.062 91.311 150.331 C 93.704 147.170,97.973 146.236,100.717 148.273 M237.164 147.453 C 239.128 147.846,241.813 150.781,242.218 152.977 C 242.342 153.650,242.388 161.400,242.322 170.200 L 242.200 186.200 240.872 188.100 C 240.141 189.145,239.511 190.005,239.472 190.011 C 239.432 190.017,238.419 190.348,237.219 190.746 C 234.003 191.813,231.360 190.880,229.408 187.989 L 228.200 186.200 228.200 169.200 L 228.200 152.200 229.407 150.400 C 231.253 147.648,233.629 146.746,237.164 147.453 M306.913 147.760 C 308.641 148.513,310.323 150.181,310.695 151.512 C 311.090 152.921,311.094 185.464,310.700 186.869 C 309.019 192.864,298.774 192.175,297.580 185.987 C 297.137 183.693,297.128 154.755,297.569 152.473 C 298.346 148.453,303.052 146.080,306.913 147.760 M58.052 165.197 C 55.145 167.495,55.200 167.249,55.200 177.901 L 55.200 187.455 56.486 189.127 C 57.193 190.047,58.093 190.800,58.486 190.800 C 58.879 190.800,59.560 191.160,60.000 191.600 C 60.943 192.543,62.954 192.643,64.400 191.818 C 64.950 191.505,65.991 190.974,66.714 190.638 C 67.472 190.287,68.287 189.472,68.638 188.714 C 68.974 187.991,69.505 186.950,69.818 186.400 C 70.641 184.957,70.641 170.643,69.818 169.200 C 69.505 168.650,68.976 167.615,68.644 166.900 C 68.312 166.185,67.833 165.600,67.578 165.600 C 67.324 165.600,66.581 165.150,65.927 164.600 C 63.909 162.902,60.642 163.150,58.052 165.197 M197.491 164.400 C 196.931 164.840,196.322 165.200,196.137 165.200 C 195.952 165.200,195.260 165.875,194.600 166.700 L 193.400 168.200 193.400 178.017 L 193.400 187.834 194.840 189.317 C 195.633 190.133,196.550 190.800,196.878 190.800 C 197.207 190.800,197.802 191.160,198.200 191.600 C 199.151 192.651,201.557 192.663,202.878 191.625 C 203.420 191.198,204.357 190.726,204.961 190.574 C 205.611 190.411,206.213 189.893,206.437 189.302 C 206.646 188.754,207.172 187.853,207.608 187.299 C 208.827 185.749,208.820 169.842,207.600 168.291 C 207.160 167.731,206.800 167.081,206.800 166.846 C 206.800 166.611,206.308 166.099,205.707 165.709 C 205.105 165.319,204.295 164.685,203.907 164.300 C 202.863 163.266,198.853 163.329,197.491 164.400 M334.917 164.710 C 333.991 165.309,333.226 166.031,333.217 166.313 C 333.207 166.594,332.932 166.928,332.604 167.054 C 330.884 167.714,330.520 186.920,332.200 188.356 C 332.640 188.731,333.199 189.390,333.443 189.820 C 333.686 190.249,334.226 190.667,334.641 190.748 C 335.057 190.830,335.827 191.235,336.352 191.648 C 337.490 192.543,339.416 192.612,340.800 191.807 C 341.350 191.487,342.271 191.030,342.846 190.792 C 343.421 190.554,344.501 189.424,345.246 188.280 L 346.600 186.200 346.736 179.618 C 346.895 171.891,346.616 169.016,345.607 168.007 C 345.206 167.606,344.766 166.946,344.627 166.539 C 343.697 163.804,337.979 162.727,334.917 164.710 M65.694 165.256 C 68.896 166.872,69.681 169.569,69.492 178.307 C 69.324 186.048,68.961 187.723,67.076 189.455 C 64.689 191.648,59.879 191.648,57.786 189.454 C 55.582 187.144,55.600 187.240,55.600 177.832 L 55.600 169.043 56.679 167.487 C 57.286 166.611,58.466 165.608,59.379 165.193 C 62.266 163.880,62.979 163.887,65.694 165.256 M204.200 165.560 C 207.131 167.476,207.565 169.025,207.577 177.600 C 207.592 188.059,205.488 192.060,200.400 191.244 C 194.394 190.281,193.489 188.365,193.671 177.000 L 193.800 169.000 194.965 167.476 C 197.553 164.094,200.897 163.400,204.200 165.560 M342.318 165.455 C 348.366 168.975,347.273 190.761,341.046 190.806 C 340.581 190.809,339.959 190.965,339.664 191.152 C 338.653 191.793,335.099 190.452,333.696 188.900 C 331.774 186.774,331.510 185.201,331.664 176.788 L 331.800 169.330 332.979 167.630 C 334.018 166.131,335.466 165.159,338.000 164.260 C 338.916 163.934,340.421 164.351,342.318 165.455 M101.200 223.569 C 100.430 223.721,99.350 224.129,98.800 224.475 C 98.250 224.821,97.260 225.230,96.600 225.383 C 95.214 225.704,91.200 228.260,91.200 228.821 C 91.200 229.030,90.964 229.200,90.675 229.200 C 90.105 229.200,85.600 233.755,85.600 234.331 C 85.600 234.525,85.166 235.151,84.636 235.724 C 84.105 236.296,83.545 237.357,83.391 238.082 C 83.237 238.807,82.871 239.673,82.579 240.006 C 80.691 242.154,80.672 258.149,82.554 260.394 C 82.833 260.727,83.275 261.746,83.535 262.659 C 83.795 263.571,84.276 264.420,84.604 264.546 C 84.932 264.672,85.200 265.072,85.200 265.435 C 85.200 266.289,91.866 272.800,92.741 272.800 C 93.107 272.800,93.627 273.151,93.895 273.580 C 94.163 274.009,95.061 274.488,95.891 274.643 C 96.721 274.798,97.910 275.302,98.533 275.763 C 99.455 276.444,100.312 276.613,103.133 276.668 L 106.600 276.737 103.736 276.412 C 102.161 276.234,100.361 275.815,99.736 275.482 C 99.111 275.148,97.745 274.573,96.700 274.204 C 95.655 273.836,94.800 273.388,94.800 273.210 C 94.800 273.032,94.366 272.778,93.835 272.645 C 92.130 272.217,86.855 267.262,85.723 265.025 C 85.382 264.351,84.877 263.530,84.599 263.200 C 84.322 262.870,83.962 262.150,83.800 261.600 C 83.637 261.050,83.121 259.790,82.652 258.800 C 80.628 254.524,81.675 241.885,84.409 237.600 C 84.619 237.270,85.154 236.332,85.596 235.516 C 87.752 231.537,93.477 227.168,99.400 224.981 C 105.611 222.688,118.734 223.412,120.494 226.144 C 120.656 226.395,120.791 229.339,120.794 232.686 C 120.801 239.319,120.446 240.295,118.426 239.214 C 117.134 238.522,116.605 238.721,117.400 239.600 C 118.266 240.557,119.887 240.635,121.111 239.777 C 121.966 239.178,122.000 238.918,121.987 232.877 L 121.975 226.600 120.620 225.252 C 119.729 224.366,118.671 223.790,117.533 223.570 C 115.478 223.173,103.208 223.172,101.200 223.569 M178.805 223.495 C 178.258 223.597,177.358 223.999,176.805 224.388 C 176.252 224.777,175.350 225.231,174.800 225.398 C 173.473 225.799,169.622 229.090,169.210 230.175 C 169.030 230.647,168.606 231.263,168.267 231.544 C 167.929 231.825,167.536 232.628,167.396 233.328 C 167.255 234.027,166.852 235.230,166.501 236.000 C 165.608 237.953,165.608 241.942,166.500 243.303 C 166.885 243.891,167.200 244.750,167.200 245.212 C 167.200 246.110,167.786 247.421,168.625 248.400 C 170.343 250.406,172.874 252.800,173.277 252.800 C 173.536 252.800,174.139 253.167,174.617 253.616 C 175.094 254.065,176.186 254.539,177.043 254.670 C 178.493 254.891,178.408 254.805,175.800 253.417 C 163.616 246.931,164.020 229.768,176.459 225.379 C 177.379 225.055,178.399 224.567,178.727 224.295 C 179.588 223.581,194.053 223.611,196.094 224.331 C 200.055 225.729,200.838 236.800,196.976 236.800 C 196.633 236.800,196.457 236.969,196.585 237.176 C 196.852 237.607,199.640 236.558,200.094 235.855 C 200.256 235.605,200.391 233.475,200.394 231.122 L 200.400 226.845 199.057 225.379 C 198.096 224.329,197.216 223.817,195.957 223.574 C 194.151 223.225,180.584 223.162,178.805 223.495 M233.534 223.577 C 232.728 223.734,231.646 224.140,231.129 224.479 C 230.611 224.818,229.628 225.218,228.943 225.368 C 228.259 225.519,227.101 226.082,226.372 226.621 C 225.642 227.159,224.804 227.600,224.510 227.600 C 224.216 227.600,223.869 227.877,223.739 228.215 C 223.609 228.553,222.985 229.098,222.352 229.425 C 221.718 229.753,221.200 230.286,221.200 230.610 C 221.200 230.935,220.935 231.200,220.610 231.200 C 220.286 231.200,219.753 231.718,219.425 232.352 C 219.098 232.985,218.553 233.609,218.215 233.739 C 217.877 233.869,217.600 234.237,217.600 234.557 C 217.600 234.877,217.162 235.660,216.626 236.296 C 216.090 236.933,215.527 237.982,215.375 238.627 C 215.222 239.272,214.715 240.430,214.249 241.200 C 212.949 243.344,212.956 257.048,214.257 259.251 C 214.729 260.048,215.240 261.272,215.393 261.969 C 215.546 262.666,216.105 263.704,216.636 264.276 C 217.166 264.849,217.600 265.554,217.600 265.844 C 217.600 266.134,217.960 266.565,218.400 266.800 C 218.840 267.035,219.200 267.408,219.200 267.627 C 219.200 268.147,221.853 270.800,222.373 270.800 C 222.592 270.800,222.954 271.141,223.177 271.558 C 223.401 271.975,224.127 272.505,224.792 272.737 C 225.456 272.969,226.000 273.319,226.000 273.515 C 226.000 274.005,227.844 274.804,228.919 274.781 C 229.692 274.764,229.647 274.678,228.552 274.081 C 227.866 273.706,226.556 272.989,225.642 272.486 C 223.588 271.358,218.686 266.522,217.776 264.727 C 217.406 263.997,216.885 263.130,216.618 262.800 C 214.462 260.134,212.986 250.652,213.942 245.600 C 216.549 231.826,226.658 223.800,241.400 223.800 C 252.554 223.800,253.600 224.523,253.600 232.229 C 253.600 238.401,252.633 240.502,250.427 239.124 C 249.374 238.467,248.786 239.108,249.777 239.833 C 253.029 242.211,254.401 240.093,254.396 232.700 L 254.391 226.600 253.073 225.319 C 251.073 223.377,239.748 222.367,233.534 223.577 M284.910 223.588 C 284.201 223.757,283.211 224.160,282.710 224.484 C 282.210 224.808,281.260 225.206,280.600 225.367 C 279.199 225.710,275.200 228.268,275.200 228.821 C 275.200 229.030,274.996 229.200,274.747 229.200 C 274.122 229.200,271.201 232.083,271.200 232.700 C 271.200 232.975,270.932 233.200,270.605 233.200 C 270.278 233.200,269.748 233.830,269.426 234.600 C 269.104 235.370,268.659 236.000,268.436 236.000 C 268.214 236.000,267.809 236.765,267.536 237.700 C 267.263 238.635,266.708 239.859,266.303 240.421 C 264.636 242.732,264.672 257.739,266.351 260.016 C 266.762 260.574,267.222 261.591,267.372 262.274 C 267.523 262.958,267.995 263.834,268.423 264.221 C 268.850 264.607,269.200 265.176,269.200 265.483 C 269.200 266.272,275.924 272.800,276.737 272.800 C 277.106 272.800,277.631 273.158,277.904 273.595 C 278.200 274.069,279.038 274.493,279.976 274.643 C 280.842 274.781,281.642 275.132,281.753 275.422 C 282.056 276.213,284.672 276.802,287.600 276.741 L 290.200 276.686 287.600 276.410 C 286.170 276.258,284.190 275.765,283.200 275.314 C 282.210 274.864,280.976 274.366,280.459 274.208 C 279.525 273.922,277.472 272.686,275.653 271.314 C 272.544 268.969,268.542 263.993,267.792 261.541 C 267.634 261.024,267.121 259.790,266.652 258.800 C 265.515 256.399,265.354 243.649,266.439 241.982 C 266.791 241.442,267.309 240.280,267.590 239.400 C 267.871 238.520,268.327 237.530,268.602 237.200 C 268.878 236.870,269.401 236.013,269.764 235.296 C 270.689 233.470,275.709 228.619,277.722 227.605 C 278.645 227.141,279.670 226.595,280.000 226.393 C 286.536 222.392,298.696 222.713,306.364 227.089 C 309.427 228.838,314.783 233.555,314.796 234.517 C 314.798 234.691,315.145 235.204,315.567 235.656 C 315.988 236.109,316.447 236.933,316.586 237.488 C 316.726 238.043,317.088 238.745,317.391 239.048 C 317.694 239.352,318.151 240.635,318.406 241.900 C 318.661 243.165,319.066 244.560,319.307 245.000 C 319.960 246.194,320.164 251.958,319.619 253.805 C 319.360 254.682,318.893 256.552,318.582 257.959 C 318.271 259.367,317.765 260.807,317.456 261.159 C 317.147 261.512,316.758 262.250,316.591 262.800 C 315.512 266.356,307.368 273.661,303.400 274.633 C 302.740 274.794,301.805 275.182,301.323 275.494 C 300.841 275.806,299.221 276.215,297.723 276.402 L 295.000 276.742 298.269 276.669 C 300.873 276.612,301.767 276.428,302.669 275.765 C 303.291 275.308,304.403 274.814,305.140 274.669 C 305.877 274.523,307.016 273.953,307.671 273.402 C 308.325 272.851,309.052 272.400,309.285 272.400 C 309.518 272.400,310.117 271.995,310.616 271.500 C 311.116 271.005,311.767 270.389,312.062 270.131 C 312.358 269.873,313.050 269.111,313.600 268.437 C 314.150 267.762,315.017 266.719,315.528 266.117 C 316.038 265.516,316.555 264.523,316.678 263.912 C 316.800 263.300,317.053 262.800,317.240 262.800 C 317.776 262.800,318.800 260.548,318.800 259.367 C 318.800 258.777,319.202 257.644,319.693 256.849 C 321.006 254.726,321.023 245.832,319.719 243.400 C 319.248 242.520,318.763 241.080,318.643 240.200 C 318.518 239.285,318.077 238.316,317.612 237.936 C 317.165 237.571,316.800 236.934,316.800 236.522 C 316.800 235.120,310.617 228.574,308.218 227.435 C 307.499 227.094,306.682 226.540,306.403 226.204 C 306.124 225.868,305.211 225.483,304.373 225.349 C 303.535 225.215,302.761 224.874,302.652 224.592 C 302.189 223.385,288.925 222.634,284.910 223.588 M137.196 224.900 C 136.119 226.666,135.939 273.149,137.001 275.202 C 138.044 277.220,149.375 277.606,151.290 275.689 L 152.200 274.778 152.319 251.489 C 152.475 220.952,153.267 223.600,143.976 223.600 L 137.988 223.600 137.196 224.900 M149.684 224.545 C 151.125 225.640,151.200 226.903,151.200 249.929 C 151.200 278.493,151.873 275.988,144.200 275.988 C 138.716 275.988,138.391 275.915,137.660 274.526 C 136.975 273.224,137.021 226.977,137.709 225.617 C 138.505 224.044,147.915 223.201,149.684 224.545 M184.127 236.440 C 179.659 237.734,182.074 242.081,188.105 243.598 C 189.597 243.974,192.032 244.900,194.625 246.080 C 196.017 246.713,200.337 250.768,200.624 251.711 C 200.773 252.200,201.148 252.890,201.459 253.244 C 201.769 253.598,202.178 254.678,202.367 255.644 L 202.712 257.400 202.756 255.680 C 202.798 254.037,201.915 251.600,201.277 251.600 C 201.111 251.600,200.772 251.060,200.522 250.400 C 200.273 249.740,199.784 249.200,199.435 249.200 C 199.086 249.200,198.800 248.936,198.800 248.614 C 198.800 248.292,198.395 247.813,197.900 247.551 C 197.405 247.288,196.775 246.756,196.500 246.368 C 196.224 245.981,195.414 245.536,194.700 245.380 C 193.985 245.223,192.975 244.763,192.456 244.356 C 191.937 243.949,190.635 243.500,189.563 243.357 C 188.491 243.215,187.420 242.866,187.184 242.580 C 186.947 242.295,185.880 241.838,184.812 241.565 C 182.681 241.018,182.051 239.756,182.979 237.890 C 183.403 237.039,183.702 236.991,189.811 236.800 C 195.292 236.628,195.836 236.557,193.641 236.300 C 190.304 235.909,185.732 235.976,184.127 236.440 M105.885 238.227 C 104.391 238.559,102.861 239.094,102.485 239.416 C 99.425 242.031,98.650 242.865,99.400 242.735 C 99.840 242.658,100.378 242.191,100.595 241.698 C 100.812 241.204,101.245 240.800,101.557 240.800 C 101.869 240.800,102.766 240.311,103.550 239.712 C 104.955 238.641,105.065 238.625,110.788 238.647 C 114.453 238.661,116.083 238.553,115.200 238.356 C 112.170 237.681,108.566 237.631,105.885 238.227 M238.039 238.196 C 236.631 238.514,235.089 239.140,234.614 239.587 C 234.138 240.034,233.531 240.400,233.266 240.400 C 233.000 240.400,232.578 240.850,232.327 241.400 C 232.077 241.950,231.714 242.400,231.522 242.400 C 231.329 242.400,230.818 243.255,230.386 244.300 C 229.954 245.345,229.420 246.513,229.200 246.895 C 228.697 247.768,228.672 253.074,229.169 253.381 C 229.373 253.507,229.836 254.504,230.199 255.597 C 232.012 261.055,238.657 263.695,246.452 262.054 C 253.542 260.561,253.604 260.612,253.591 267.944 C 253.579 274.686,252.686 275.817,246.896 276.419 L 243.800 276.740 247.673 276.653 C 251.501 276.566,251.562 276.549,252.969 275.183 L 254.391 273.800 254.396 267.700 C 254.400 262.130,254.330 261.530,253.600 260.800 C 252.634 259.834,250.925 259.763,249.948 260.647 C 248.221 262.210,236.969 261.858,235.017 260.181 C 234.389 259.642,233.634 259.200,233.338 259.200 C 233.042 259.200,232.800 258.934,232.800 258.609 C 232.800 258.284,232.383 257.745,231.874 257.412 C 229.441 255.818,229.383 245.897,231.790 243.200 C 232.281 242.650,232.793 241.885,232.929 241.500 C 233.064 241.115,233.514 240.800,233.929 240.800 C 234.344 240.800,235.204 240.312,235.842 239.714 C 236.997 238.632,237.014 238.629,243.000 238.647 C 246.784 238.658,248.483 238.549,247.600 238.351 C 244.633 237.686,240.586 237.620,238.039 238.196 M288.688 238.411 C 287.181 238.791,282.800 241.727,282.800 242.357 C 282.800 242.539,282.317 243.388,281.726 244.244 C 278.259 249.269,281.090 258.336,287.022 261.210 C 291.607 263.431,300.760 261.675,301.808 258.374 C 301.930 257.989,302.286 257.576,302.598 257.456 C 303.587 257.077,304.931 251.813,304.692 249.258 C 304.212 244.141,302.462 241.548,297.667 238.852 C 296.463 238.176,290.735 237.894,288.688 238.411 M297.480 239.346 C 297.656 239.646,298.340 240.169,299.000 240.508 C 299.660 240.847,300.631 241.636,301.157 242.262 C 301.683 242.888,302.350 243.676,302.640 244.012 C 304.387 246.047,304.100 254.817,302.222 256.777 C 301.660 257.364,301.190 258.014,301.177 258.222 C 301.022 260.734,289.184 262.814,286.928 260.725 C 283.780 257.810,282.999 256.899,281.970 254.942 C 280.370 251.902,280.298 247.976,281.800 245.762 C 282.350 244.951,282.800 243.966,282.800 243.571 C 282.800 243.177,283.151 242.743,283.580 242.606 C 284.008 242.470,284.470 242.008,284.606 241.580 C 284.743 241.151,285.102 240.800,285.405 240.800 C 285.708 240.800,286.460 240.356,287.078 239.813 C 288.425 238.627,296.838 238.250,297.480 239.346 M97.700 245.038 C 96.622 247.138,96.421 249.135,97.421 247.812 C 98.056 246.972,98.929 244.158,98.723 243.613 C 98.656 243.433,98.195 244.074,97.700 245.038 M96.493 250.000 C 96.493 250.770,96.575 251.085,96.676 250.700 C 96.776 250.315,96.776 249.685,96.676 249.300 C 96.575 248.915,96.493 249.230,96.493 250.000 M96.800 252.763 C 96.800 253.910,98.834 257.633,100.235 259.048 C 103.917 262.771,110.099 263.617,117.448 261.406 C 120.557 260.470,120.800 260.947,120.800 267.987 L 120.800 273.929 119.604 274.935 C 118.457 275.900,117.825 276.049,112.800 276.536 C 112.030 276.611,112.750 276.700,114.400 276.734 C 117.393 276.795,120.400 276.249,120.400 275.642 C 120.400 275.466,120.760 274.907,121.200 274.400 C 122.472 272.934,122.411 262.014,121.125 260.816 C 120.050 259.815,118.521 259.766,117.490 260.700 C 116.016 262.034,104.537 261.721,102.847 260.300 C 102.127 259.695,101.385 259.200,101.196 259.200 C 101.008 259.200,100.743 258.849,100.606 258.420 C 100.470 257.992,100.008 257.530,99.580 257.394 C 99.125 257.249,98.796 256.782,98.791 256.273 C 98.782 255.350,97.393 252.000,97.020 252.000 C 96.899 252.000,96.800 252.343,96.800 252.763 M178.876 255.239 C 179.098 255.917,181.338 256.746,183.028 256.777 C 183.820 256.792,184.565 257.155,185.125 257.800 C 185.603 258.350,186.266 258.800,186.597 258.800 C 187.782 258.800,187.294 261.291,185.892 262.400 C 184.288 263.670,172.473 263.857,170.736 262.640 C 167.595 260.440,166.000 262.574,166.000 268.975 L 166.000 273.985 167.367 275.393 L 168.733 276.800 173.267 276.742 L 177.800 276.684 173.439 276.372 C 167.321 275.934,167.049 275.646,166.866 269.408 C 166.705 263.897,167.454 262.451,170.064 263.238 C 171.865 263.780,181.372 264.185,183.789 263.822 C 189.569 262.956,188.961 258.195,182.800 256.068 C 178.539 254.597,178.676 254.626,178.876 255.239 M202.464 262.907 C 202.345 265.712,197.522 272.800,195.734 272.800 C 195.462 272.800,195.094 273.060,194.917 273.377 C 194.739 273.694,194.145 274.133,193.597 274.352 L 192.600 274.749 193.718 274.775 C 194.393 274.790,195.220 274.416,195.805 273.831 C 196.338 273.298,197.140 272.746,197.587 272.604 C 198.034 272.462,198.400 272.205,198.400 272.032 C 198.400 271.860,198.940 271.154,199.600 270.463 C 200.260 269.772,200.800 268.964,200.800 268.666 C 200.800 268.368,201.156 267.801,201.592 267.407 C 202.502 266.584,202.936 264.759,202.695 262.773 L 202.528 261.400 202.464 262.907 M190.501 275.469 C 190.006 275.815,188.210 276.229,186.501 276.392 L 183.400 276.688 186.400 276.721 C 189.529 276.756,192.024 276.155,192.303 275.300 C 192.526 274.619,191.595 274.706,190.501 275.469 M230.097 275.300 C 230.376 276.155,232.870 276.756,236.000 276.723 L 239.000 276.691 236.171 276.393 C 234.615 276.229,232.779 275.803,232.091 275.447 C 230.592 274.672,229.874 274.619,230.097 275.300 " stroke="none" fill="#31ccf2" fill-rule="evenodd"></path></g></svg>