<svg id="svg" version="1.1" width="400" height="400" viewBox="0 0 400 400" xmlns="http://www.w3.org/2000/svg" xmlns:xlink="http://www.w3.org/1999/xlink" ><g id="svgg"><path id="path0" d="M0.000 200.000 L 0.000 400.000 200.000 400.000 L 400.000 400.000 400.000 200.000 L 400.000 0.000 200.000 0.000 L 0.000 0.000 0.000 200.000 M103.749 167.805 C 105.163 168.395,106.295 169.268,109.061 171.900 C 109.812 172.615,110.695 173.200,111.023 173.200 C 111.748 173.200,112.507 175.032,112.193 176.021 C 112.068 176.415,110.669 177.774,109.083 179.042 C 107.497 180.309,105.750 181.773,105.200 182.295 C 104.177 183.264,99.232 187.080,98.064 187.800 C 97.707 188.020,96.283 189.280,94.898 190.600 C 93.514 191.920,91.846 193.189,91.191 193.420 C 90.535 193.651,89.784 194.056,89.520 194.320 C 89.256 194.584,88.818 194.800,88.547 194.800 C 88.276 194.800,87.952 195.121,87.827 195.514 C 87.703 195.907,86.867 196.792,85.971 197.481 L 84.342 198.733 85.817 200.367 C 87.561 202.296,87.972 202.356,89.469 200.900 C 90.939 199.470,93.780 197.249,95.813 195.942 C 96.700 195.371,97.870 194.246,98.413 193.442 C 98.956 192.638,99.850 191.866,100.400 191.727 C 100.950 191.587,102.120 190.906,103.000 190.212 C 104.518 189.016,106.119 187.886,107.553 187.000 C 107.909 186.780,108.869 185.925,109.687 185.100 C 110.504 184.275,111.350 183.600,111.567 183.600 C 111.783 183.600,112.104 183.358,112.280 183.061 C 113.278 181.381,117.960 178.970,118.032 180.100 C 118.057 180.500,118.104 180.500,118.265 180.100 C 118.764 178.863,124.400 181.928,124.400 183.436 C 124.400 183.733,125.112 184.386,125.981 184.886 C 128.417 186.288,128.301 189.316,125.763 190.599 C 124.413 191.281,122.522 192.956,122.036 193.900 C 121.781 194.395,121.252 194.800,120.861 194.800 C 120.470 194.800,119.621 195.357,118.975 196.037 C 118.329 196.718,116.855 197.905,115.700 198.676 C 114.545 199.447,113.600 200.223,113.600 200.400 C 113.600 200.717,109.997 203.321,108.199 204.303 C 107.692 204.580,106.725 205.435,106.051 206.203 C 105.376 206.972,104.552 207.600,104.218 207.600 C 103.885 207.600,102.710 208.455,101.608 209.500 L 99.605 211.400 101.243 212.757 C 102.145 213.503,102.999 213.953,103.141 213.757 C 103.457 213.322,104.452 212.715,106.727 211.571 C 107.677 211.093,108.665 210.364,108.923 209.951 C 109.181 209.538,109.599 209.200,109.852 209.200 C 110.105 209.200,111.007 208.574,111.856 207.809 C 112.705 207.044,113.580 206.412,113.800 206.405 C 114.020 206.397,114.920 205.705,115.800 204.865 C 116.680 204.026,118.570 202.524,120.000 201.528 C 121.430 200.533,122.993 199.143,123.473 198.440 C 123.953 197.738,124.449 197.175,124.577 197.190 C 125.082 197.248,127.200 195.956,127.200 195.590 C 127.200 195.375,127.470 195.200,127.800 195.200 C 128.130 195.200,128.400 195.014,128.400 194.787 C 128.400 194.561,128.715 194.256,129.100 194.111 C 129.485 193.965,130.295 193.355,130.900 192.754 L 132.000 191.662 132.000 184.437 C 132.000 180.249,131.806 176.487,131.539 175.489 C 131.111 173.888,131.156 173.650,132.173 172.113 C 133.492 170.119,133.981 170.015,141.505 170.124 L 146.810 170.200 147.733 171.729 C 148.574 173.124,148.624 173.493,148.296 175.929 C 147.715 180.239,148.085 213.845,148.720 214.480 C 149.118 214.878,151.754 215.011,159.975 215.048 C 171.294 215.099,171.596 215.138,171.606 216.524 C 171.610 217.089,171.722 217.228,171.921 216.914 C 172.091 216.647,172.266 206.657,172.310 194.714 C 172.354 182.771,172.392 172.685,172.395 172.300 C 172.398 171.868,172.707 171.600,173.200 171.600 C 173.640 171.600,174.000 171.374,174.000 171.098 C 174.000 170.396,176.801 169.572,177.647 170.025 C 178.018 170.224,179.893 170.313,181.814 170.223 C 185.668 170.044,187.421 170.447,187.045 171.426 C 186.915 171.765,186.967 171.944,187.159 171.825 C 188.372 171.076,188.477 172.866,188.437 193.599 C 188.399 213.099,188.441 214.442,189.098 214.712 C 189.701 214.959,205.105 215.076,206.800 214.846 C 210.371 214.361,213.894 216.886,212.017 218.585 C 211.309 219.225,211.253 219.687,211.431 223.414 C 211.557 226.036,211.478 227.628,211.214 227.791 C 210.986 227.932,210.800 227.822,210.800 227.547 C 210.800 227.272,210.546 227.395,210.235 227.819 C 209.925 228.244,209.744 228.709,209.833 228.854 C 210.281 229.579,207.247 229.742,191.600 229.833 L 174.600 229.933 173.123 228.766 L 171.646 227.599 171.058 228.439 C 170.292 229.532,168.458 230.472,167.615 230.205 C 167.249 230.089,159.402 229.911,150.175 229.810 C 129.653 229.586,132.000 230.883,132.000 219.768 C 132.000 212.194,131.951 211.641,131.300 211.849 C 129.897 212.297,128.593 213.010,128.280 213.500 C 128.104 213.776,127.004 214.613,125.836 215.360 C 124.668 216.107,123.318 217.273,122.835 217.952 C 122.351 218.630,121.831 219.150,121.678 219.108 C 121.177 218.968,119.600 220.181,119.600 220.706 C 119.600 220.989,119.164 221.386,118.631 221.588 C 117.057 222.186,111.248 226.543,107.200 230.160 C 106.062 231.176,104.000 232.060,104.000 231.530 C 104.000 231.149,103.893 231.147,103.520 231.520 C 102.848 232.192,101.396 232.118,100.784 231.381 C 100.461 230.992,100.176 230.915,100.016 231.174 C 99.658 231.753,96.881 230.212,95.400 228.613 C 94.740 227.900,93.795 227.189,93.300 227.032 C 92.805 226.875,92.400 226.484,92.400 226.164 C 92.400 225.845,91.905 225.370,91.300 225.110 C 90.695 224.849,89.874 224.309,89.476 223.909 C 89.078 223.509,88.585 223.285,88.381 223.412 C 88.177 223.538,87.783 223.458,87.505 223.234 C 87.227 223.011,86.287 222.237,85.415 221.514 C 84.544 220.791,83.501 219.930,83.098 219.600 C 82.695 219.270,81.406 218.055,80.234 216.900 C 79.062 215.745,77.914 214.800,77.684 214.800 C 77.453 214.800,76.305 213.931,75.132 212.870 C 71.848 209.897,70.400 209.941,70.973 212.996 C 71.146 213.917,71.083 214.400,70.791 214.400 C 68.953 214.400,67.160 217.802,67.787 220.100 C 68.056 221.087,67.984 221.200,67.086 221.200 C 66.536 221.200,65.981 221.473,65.853 221.807 C 65.705 222.191,65.190 222.381,64.454 222.325 C 63.120 222.224,60.686 223.718,59.953 225.089 C 59.593 225.760,59.240 225.925,58.541 225.749 C 57.898 225.588,57.531 225.715,57.361 226.158 C 57.225 226.511,56.889 226.800,56.613 226.800 C 56.337 226.800,55.474 227.233,54.695 227.761 C 52.780 229.061,42.356 230.191,35.800 229.810 C 33.380 229.669,29.069 229.725,26.220 229.934 C 20.655 230.342,20.007 230.271,19.987 229.257 C 19.980 228.896,19.755 228.313,19.487 227.962 C 19.123 227.485,19.063 225.422,19.252 219.762 C 19.675 207.088,19.620 177.170,19.170 175.220 C 18.574 172.632,19.547 170.911,21.785 170.597 C 25.916 170.018,41.805 170.282,47.400 171.023 C 53.029 171.768,53.639 171.926,56.336 173.341 C 62.608 176.630,63.712 177.371,64.246 178.649 C 64.540 179.352,64.941 179.988,65.137 180.063 C 65.722 180.287,69.600 185.669,69.600 186.257 C 69.600 186.556,69.963 186.800,70.408 186.800 C 71.053 186.800,71.168 186.987,70.982 187.730 C 70.546 189.465,71.774 189.877,73.420 188.548 C 74.203 187.917,75.333 187.040,75.932 186.600 C 76.531 186.160,77.845 185.125,78.852 184.300 C 79.859 183.475,80.934 182.791,81.241 182.779 C 81.549 182.768,82.375 182.040,83.079 181.162 C 83.782 180.283,84.502 179.536,84.679 179.501 C 84.855 179.466,85.561 178.927,86.247 178.303 C 86.933 177.678,88.328 176.639,89.347 175.993 C 90.366 175.346,91.202 174.679,91.205 174.509 C 91.207 174.339,91.911 173.864,92.769 173.453 C 93.627 173.042,95.141 171.962,96.132 171.053 C 99.825 167.667,100.113 167.478,100.869 167.950 C 101.433 168.302,101.526 168.272,101.342 167.794 C 101.048 167.026,101.894 167.029,103.749 167.805 M364.000 169.659 C 364.550 169.642,365.360 169.784,365.800 169.974 C 367.290 170.619,373.168 172.400,373.806 172.400 C 374.422 172.400,377.194 175.097,377.198 175.700 C 377.199 175.865,377.440 176.000,377.732 176.000 C 378.025 176.000,378.517 176.495,378.825 177.100 C 379.134 177.705,379.884 178.729,380.493 179.376 C 381.102 180.023,381.600 180.788,381.600 181.076 C 381.600 181.364,381.741 181.600,381.913 181.600 C 382.318 181.600,383.356 187.177,383.015 187.518 C 382.873 187.661,382.569 187.512,382.341 187.188 C 382.006 186.715,381.972 186.747,382.169 187.351 C 382.304 187.764,382.192 188.369,381.920 188.697 C 381.648 189.024,381.420 189.654,381.413 190.096 C 381.382 192.031,376.415 190.785,375.773 188.680 C 375.097 186.465,373.480 183.560,373.021 183.737 C 372.696 183.861,372.578 183.629,372.678 183.063 C 372.949 181.539,369.858 178.969,368.632 179.700 C 368.540 179.755,368.006 179.369,367.445 178.842 C 364.574 176.145,353.291 176.832,350.994 179.844 C 350.425 180.590,349.730 181.200,349.449 181.200 C 349.169 181.200,348.414 181.830,347.772 182.600 C 347.130 183.370,346.382 184.000,346.110 184.000 C 345.838 184.000,345.496 184.495,345.349 185.100 C 345.203 185.705,344.774 186.650,344.395 187.200 C 340.460 192.921,340.495 208.002,344.457 213.662 C 344.866 214.246,345.200 214.907,345.200 215.131 C 345.200 215.785,347.219 218.000,347.816 218.000 C 348.115 218.000,348.504 218.225,348.680 218.500 C 349.658 220.029,355.114 222.800,357.147 222.800 C 357.543 222.800,357.994 222.928,358.150 223.084 C 358.860 223.793,366.212 222.477,367.970 221.326 C 368.509 220.972,369.316 220.665,369.763 220.642 C 370.211 220.619,370.796 220.159,371.065 219.620 C 371.334 219.081,371.978 218.181,372.496 217.620 C 373.704 216.314,374.645 214.244,374.986 212.144 C 375.319 210.099,377.006 208.229,377.457 209.404 C 377.712 210.068,377.762 210.056,378.055 209.264 C 378.540 207.951,380.781 208.087,382.318 209.523 C 383.694 210.809,383.719 210.465,381.653 218.569 C 381.433 219.432,380.971 220.296,380.627 220.489 C 380.282 220.682,380.000 221.121,380.000 221.464 C 380.000 222.310,374.772 227.200,373.868 227.200 C 373.645 227.200,373.179 227.456,372.831 227.768 C 369.272 230.969,353.107 231.264,349.200 228.199 C 348.203 227.417,344.731 225.600,344.234 225.600 C 343.979 225.600,343.098 224.797,342.278 223.815 C 341.457 222.834,340.553 222.120,340.268 222.229 C 339.974 222.342,339.524 221.946,339.228 221.314 C 338.941 220.701,338.515 219.840,338.280 219.400 C 338.045 218.960,337.602 218.060,337.297 217.400 C 336.991 216.740,336.394 215.508,335.970 214.662 C 335.547 213.816,335.200 212.809,335.200 212.424 C 335.200 212.038,334.944 211.200,334.632 210.561 C 333.677 208.608,332.978 199.434,333.530 196.093 C 333.788 194.527,334.000 192.498,334.000 191.585 C 334.000 190.671,334.248 189.446,334.551 188.862 C 334.854 188.278,335.281 187.350,335.498 186.800 C 337.485 181.780,342.418 174.800,343.980 174.800 C 344.144 174.800,344.710 174.443,345.239 174.007 C 345.767 173.571,346.380 173.074,346.600 172.902 C 347.490 172.206,350.348 171.240,352.800 170.807 C 354.230 170.554,356.120 170.181,357.000 169.979 C 359.236 169.465,361.259 169.279,362.200 169.501 C 362.640 169.605,363.450 169.676,364.000 169.659 M258.099 170.587 C 259.010 170.747,259.280 171.089,259.682 172.590 C 259.978 173.699,260.405 174.418,260.783 174.446 C 261.316 174.487,261.319 174.516,260.800 174.664 C 260.470 174.758,259.930 175.410,259.600 176.113 L 259.000 177.391 245.520 177.258 C 236.126 177.165,231.618 177.264,230.650 177.583 L 229.261 178.042 229.226 184.521 C 229.206 188.084,229.085 191.818,228.955 192.817 C 228.563 195.832,228.177 195.752,243.538 195.827 C 259.460 195.904,257.411 195.662,258.392 197.584 C 259.214 199.195,259.570 201.205,258.826 200.028 C 258.558 199.605,258.391 199.842,258.185 200.939 C 257.765 203.181,257.634 203.200,243.050 203.200 C 234.603 203.200,229.556 203.347,229.402 203.597 C 228.936 204.351,229.026 221.186,229.498 221.658 C 229.808 221.968,233.818 222.082,242.737 222.035 C 251.240 221.990,255.619 222.107,255.790 222.384 C 255.931 222.613,256.397 222.800,256.824 222.800 C 257.251 222.800,257.600 222.961,257.600 223.157 C 257.600 223.354,257.879 223.622,258.221 223.753 C 258.577 223.889,258.737 223.822,258.597 223.595 C 258.463 223.378,258.588 223.206,258.876 223.213 C 259.541 223.229,261.119 224.400,260.476 224.400 C 260.172 224.400,260.000 225.117,260.000 226.391 C 260.000 229.909,260.670 229.791,240.343 229.854 L 222.852 229.907 222.017 229.018 C 221.186 228.133,221.181 227.968,221.170 200.196 C 221.157 168.942,220.956 171.076,223.970 170.459 C 225.386 170.169,256.376 170.285,258.099 170.587 M326.063 170.932 C 326.967 171.497,327.392 173.546,327.016 175.522 C 326.593 177.743,326.427 221.507,326.833 223.717 C 327.042 224.849,327.037 225.913,326.822 226.317 C 326.622 226.693,326.346 227.355,326.208 227.789 C 325.996 228.455,325.894 228.486,325.552 227.989 C 325.242 227.538,325.205 227.605,325.393 228.276 C 326.081 230.729,320.746 230.501,319.697 228.032 C 319.405 227.346,319.215 220.472,319.129 207.500 C 319.058 196.775,318.865 188.000,318.700 188.000 C 318.535 188.000,318.400 188.177,318.400 188.394 C 318.400 188.611,317.881 189.646,317.246 190.694 C 316.612 191.742,315.973 193.441,315.826 194.469 C 315.678 195.512,315.041 197.105,314.387 198.069 C 313.742 199.021,313.095 200.430,312.949 201.200 C 312.804 201.970,312.576 202.690,312.442 202.800 C 311.996 203.169,310.000 207.610,310.000 208.236 C 310.000 208.575,309.572 209.426,309.050 210.127 C 308.527 210.827,307.871 212.120,307.593 213.000 C 307.314 213.880,306.842 214.955,306.543 215.389 C 306.244 215.823,305.999 216.453,305.998 216.789 C 305.996 217.125,305.726 217.916,305.398 218.546 C 305.069 219.176,304.800 219.924,304.800 220.208 C 304.800 220.653,304.227 221.962,302.750 224.895 C 302.557 225.277,302.400 225.855,302.400 226.181 C 302.400 226.506,301.841 227.408,301.159 228.186 C 298.438 231.284,292.916 229.833,291.675 225.694 C 291.412 224.814,290.927 223.872,290.598 223.598 C 290.269 223.325,290.000 222.863,290.000 222.570 C 290.000 221.602,289.090 220.021,288.679 220.275 C 288.422 220.434,288.366 220.072,288.525 219.277 C 288.720 218.300,288.429 217.354,287.187 214.926 C 286.314 213.219,285.600 211.586,285.600 211.299 C 285.600 211.011,285.330 210.671,285.000 210.545 C 284.670 210.418,284.400 209.984,284.400 209.581 C 284.400 209.177,284.244 208.751,284.054 208.633 C 283.863 208.515,283.794 207.965,283.900 207.410 C 284.013 206.818,283.908 206.400,283.647 206.400 C 283.401 206.400,283.200 206.591,283.200 206.824 C 283.200 207.057,283.050 207.155,282.867 207.041 C 282.683 206.928,282.614 206.287,282.712 205.618 C 282.820 204.883,282.714 204.400,282.445 204.400 C 282.200 204.400,282.000 203.942,282.000 203.383 C 282.000 202.824,281.640 201.980,281.200 201.508 C 280.482 200.738,280.214 199.976,280.353 199.100 C 280.379 198.935,280.130 198.800,279.800 198.800 C 279.470 198.800,279.200 198.607,279.200 198.371 C 279.200 198.136,278.916 197.659,278.569 197.312 C 278.214 196.957,278.030 196.327,278.149 195.872 C 278.394 194.937,277.588 191.600,277.117 191.600 C 276.943 191.600,276.800 191.329,276.800 190.999 C 276.800 189.630,275.318 187.507,275.053 188.495 C 274.721 189.734,274.790 218.267,275.134 222.036 C 275.643 227.614,274.655 229.691,271.461 229.762 C 269.690 229.801,267.600 228.990,267.600 228.264 C 267.600 228.043,267.312 227.545,266.960 227.156 C 266.408 226.546,266.380 226.071,266.758 223.724 C 267.047 221.928,267.170 212.924,267.119 197.299 C 267.061 179.338,267.158 173.482,267.521 173.119 C 267.784 172.856,268.000 172.249,268.000 171.770 C 268.000 169.803,275.319 169.753,276.728 171.711 C 278.134 173.665,279.329 175.730,279.441 176.400 C 279.769 178.355,282.999 186.000,283.497 186.000 C 283.889 186.000,284.649 187.794,285.017 189.584 C 285.386 191.384,286.614 194.238,287.167 194.580 C 287.405 194.727,287.600 195.259,287.600 195.762 C 287.600 196.265,287.953 196.996,288.385 197.386 C 289.656 198.537,290.800 201.106,290.800 202.811 C 290.800 204.231,291.854 206.872,293.829 210.400 C 294.136 210.950,294.391 211.715,294.394 212.100 C 294.397 212.485,294.580 212.800,294.800 212.800 C 295.020 212.800,295.200 213.070,295.200 213.400 C 295.200 213.730,295.393 214.000,295.629 214.000 C 295.864 214.000,296.005 214.405,295.941 214.900 C 295.877 215.395,295.954 216.008,296.113 216.262 C 296.499 216.883,298.000 216.457,298.000 215.727 C 298.000 215.408,298.450 214.557,299.000 213.836 C 299.550 213.114,300.000 212.283,300.000 211.989 C 300.000 211.694,300.336 210.721,300.747 209.826 C 301.158 208.932,301.993 206.760,302.603 205.000 C 303.212 203.240,304.022 201.170,304.403 200.400 C 304.783 199.630,305.286 198.550,305.521 198.000 C 305.755 197.450,306.578 195.631,307.351 193.958 C 308.123 192.285,308.873 190.448,309.017 189.875 C 309.161 189.302,309.530 188.624,309.838 188.368 C 310.146 188.113,310.762 186.725,311.207 185.285 C 311.954 182.865,313.578 178.753,314.438 177.105 C 314.637 176.723,314.800 176.048,314.800 175.605 C 314.800 175.162,314.977 174.800,315.192 174.800 C 315.408 174.800,315.698 174.350,315.836 173.800 C 315.974 173.250,316.226 172.800,316.397 172.800 C 316.567 172.800,316.799 172.448,316.911 172.018 C 317.378 170.235,323.738 169.480,326.063 170.932 M41.200 185.046 C 34.645 185.734,35.107 184.426,35.274 201.799 L 35.400 214.992 40.400 214.970 C 47.833 214.937,54.230 211.750,55.045 207.674 C 55.185 206.973,55.458 206.400,55.650 206.400 C 55.843 206.400,56.000 205.950,56.000 205.400 C 56.000 204.850,56.162 204.400,56.361 204.400 C 57.712 204.400,57.216 196.155,55.760 194.426 C 55.232 193.798,54.800 192.815,54.800 192.242 C 54.800 191.609,54.577 191.200,54.233 191.200 C 53.921 191.200,53.276 190.570,52.800 189.800 C 52.203 188.834,51.639 188.400,50.981 188.400 C 50.438 188.400,49.844 188.057,49.601 187.601 C 48.687 185.894,44.694 184.680,41.200 185.046 M382.762 189.445 C 382.181 190.146,381.810 189.872,382.148 188.992 C 382.283 188.638,382.584 188.467,382.817 188.610 C 383.107 188.789,383.090 189.051,382.762 189.445 M325.693 190.000 C 325.693 190.770,325.775 191.085,325.876 190.700 C 325.976 190.315,325.976 189.685,325.876 189.300 C 325.775 188.915,325.693 189.230,325.693 190.000 M171.650 221.100 C 171.621 222.800,171.766 224.000,172.000 224.000 C 172.466 224.000,172.473 222.544,172.020 220.000 C 171.717 218.293,171.698 218.349,171.650 221.100 M210.501 222.600 C 210.505 223.480,210.587 223.793,210.683 223.295 C 210.779 222.798,210.775 222.078,210.675 221.695 C 210.575 221.313,210.496 221.720,210.501 222.600 " stroke="none" fill="#047bbb" fill-rule="evenodd"></path></g></svg>